<svg xmlns="http://www.w3.org/2000/svg" viewBox="0 0 1378.41 276.08" fill="#fff"><defs><style>.cls-1{fill:#fff;}</style></defs><title>Asset 1</title><g id="Layer_2" data-name="Layer 2"><g id="Layer_5" data-name="Layer 5"><path class="cls-1" d="M716,254.31s-8.48,11.59-19.5,2.55c3.11,7.35-7.77,19.22-7.77,19.22s-11.31-11-7.78-19.22c-11,9-19.5-2.55-19.5-2.55,18.92-7.16,28.05-35,28.05-35S697.07,247.15,716,254.31Zm-27.27-83.53A12.67,12.67,0,1,0,676,158.11,12.67,12.67,0,0,0,688.72,170.78ZM640.64,32.28c1.09-7.49,13.74-6.18,17.34-.22-4.39-3-13.67,2.24-9.59,6.62,13.35-8.22,25,6.8,29.79,18.49-5.09-34.64-30.25-39.9-36.66-34.12-2.71,2.44-5.4,6.18-2.78,9.13C639.85,33.61,640.66,32.3,640.64,32.28ZM729,38.69c4.08-4.38-5.2-9.63-9.59-6.62,3.6-6,16.25-7.27,17.34.22,0,0,.8,1.33,1.89-.1,2.61-2.94-.08-6.68-2.78-9.13-6.41-5.77-31.57-.52-36.66,34.12C704.06,45.49,715.68,30.47,729,38.69ZM693.18,22.6A65.25,65.25,0,0,0,689,0a65.24,65.24,0,0,0-4.22,22.6c0,12.48,4.22,31,4.22,31S693.18,35.08,693.18,22.6Zm11.57,9.12a45.94,45.94,0,0,0,5.35-18.36,45.89,45.89,0,0,0-12.72,14.28c-5,9-5.35,26.8-5.35,26.8S699.76,40.73,704.75,31.72ZM686.21,54.43s-.36-17.78-5.35-26.8a45.91,45.91,0,0,0-12.73-14.28,45.91,45.91,0,0,0,5.35,18.36C678.48,40.73,686.21,54.43,686.21,54.43Zm1.57,52.79c-.17-1.14-1.46-1.63-1.73-.5-10.48,44.43-85.15,43.47-95.77,86.05-.58,2.32.6,3,1.77,1.37,21.48-29.52,34.08-14.13,32.52-8.28a.91.91,0,0,0,1.05,1.12h0c15-6.52,14.38-21.24,8.54-24.91C676.67,167.47,690.47,124.9,687.78,107.22Zm-84.28,39.58a70.28,70.28,0,0,0-16.26,13.13c-4.58,5.27-7.82,12-7.68,19a27.74,27.74,0,0,1,2.93-9.74,33,33,0,0,1,6-8.08c4.75-4.8,10.5-8.53,16.4-11.9,11.89-6.67,24.64-11.88,36.92-18.34,6.1-3.3,12.18-6.84,17.56-11.51a37.23,37.23,0,0,0,7.08-8.15,15,15,0,0,0,1.6-5.57,16.19,16.19,0,0,0-.37-5.64,10,10,0,0,0-3-5.07,10.44,10.44,0,0,0-15.3,1.76,8.69,8.69,0,0,0-1.76,5.28,7.92,7.92,0,0,0,2,5.08,6.34,6.34,0,0,0,4.78,2.32,5,5,0,0,0,4.23-2.77,4.71,4.71,0,0,1-4.23,2.23,5.65,5.65,0,0,1-4-2.38A6.75,6.75,0,0,1,649,102a7.1,7.1,0,0,1,1.8-4.22A8.3,8.3,0,0,1,663,96.87a7.3,7.3,0,0,1,2,3.8,13.19,13.19,0,0,1,.11,4.62,12.62,12.62,0,0,1-1.29,4.28,34,34,0,0,1-6.61,7.2,94.65,94.65,0,0,1-17,10.91C628.11,134.1,615.35,139.48,603.49,146.79Zm30.37-22.9c-3.55,3.05-8.15,5.18-12.66,7.34-9.08,4.28-18.58,8.51-26.68,15a51.08,51.08,0,0,0-10.59,11.25,43.85,43.85,0,0,0-6.21,14,51.19,51.19,0,0,1,18.48-23c8.09-5.77,17.32-9.71,26.54-14,4.58-2.21,9.28-4.41,13.43-8a14.46,14.46,0,0,0,4.53-7.09,10.58,10.58,0,0,0-1-8.54c-3.69-5.22-11.83-4.87-15,.17a8.06,8.06,0,0,0-1.08,4,5.48,5.48,0,0,0,1.32,3.89,4.08,4.08,0,0,0,3.75,1.37,4.15,4.15,0,0,0,2.87-2.48,3.88,3.88,0,0,1-2.94,2,3.39,3.39,0,0,1-3-1.44,4.27,4.27,0,0,1-.71-3.21,6.48,6.48,0,0,1,1.23-3.13,6.62,6.62,0,0,1,5.78-2.5,6.45,6.45,0,0,1,5.28,2.89,8,8,0,0,1,.34,6.15A11.28,11.28,0,0,1,633.87,123.9Zm17.9-35.7a1.1,1.1,0,0,0,.18.27,1,1,0,0,0,1.56.58c4.82-3.95,14.79-.72,16.6,5a.86.86,0,0,0,1,.62.82.82,0,0,0,1-.85C671.44,81,665,61.9,649,62.37a.92.92,0,0,0-.2,1.79c4.28,3.2,9.71,6.82,10.34,13.58C655.36,75.06,649.47,81.62,651.76,88.2ZM486.38,170.68c27,6.43,49.49-17.54,60.35-33.39,7.94-11.58,20.91-15.75,26.25-12,6.11,4.3,6.74,12.49,5.37,17-1.75,5.81-13.51,6.94-10.84.09.09,0,.17.12.27.08,3.85-1.82,3.21-6.9.23-8.84a7.36,7.36,0,0,0-11.54,5.22c-1.3,11,15.71,17,25.12,5.87,16.29-19.23-6.79-40.73-24.72-28.09C581.58,84.79,599,95,598.63,100.36c-.3,4.23-3,7.12-5.83,10-3.52,3.63-2.69,11.4.78,14.26,5.21,4.3,11.17,3,16.57-3.12,6.15-7,3.94-18.18-1.63-24.73-6.06-7.08-14.52-11.4-28.06-8.36-13.21,3-22,19.32-28.73,30-1.5,2.37-3,4.83-4.6,7.33,3-16.41-1.62-39.56-19.63-38-8.86.77-16.63,11.78-9.66,19.38,2.3,2.52,5.88,3.89,9.16,2.37a6,6,0,0,0,3.43-6.81A3.15,3.15,0,0,0,527,100a2.77,2.77,0,0,0-2.9,2.94,3.16,3.16,0,0,0,4.85,2.67,4.68,4.68,0,0,1-2.13,2c-2.56,1-4.89-.49-6.17-2.65C515.52,96,527.93,90.48,534.81,94c7.28,3.66,9.55,13.56,10.15,20.95a70.85,70.85,0,0,1-.34,14.71c-2.47,3.86-5,7.74-7.79,11.47,3.14-7.89,3.06-16.34-4.81-20-5.74-2.7-14.48,1.32-12.89,8.5a5.67,5.67,0,0,0,4.8,4.74,4.32,4.32,0,0,0,4.55-3,2.24,2.24,0,0,0-1.14-2.88,2,2,0,0,0-2.84.77,2.27,2.27,0,0,0,.82,3.09,2.24,2.24,0,0,0,1.21.29,3.34,3.34,0,0,1-2,.48c-1.94-.28-2.85-2.05-2.86-3.84,0-7.34,9.66-6.31,12.65-1.68,3.18,4.87,1,11.78-1.24,16.55a51.62,51.62,0,0,1-2.85,5.18,62.52,62.52,0,0,1-12.75,11.1.09.09,0,0,0-.06,0c-17.73,9-28.08-1.61-29.84-5.74-1.27-3-1.85-9.45,3-9.7a.93.93,0,0,0,.42-1.74c-7.87-6.18-17.83,1.29-17.94,6.15-13-14.37,5.59-17.12,6-18.23,1.81-5-3.62-16.29-12.29-11.44a21.59,21.59,0,0,1,14.56-16.84c11.31-3.85,29.87,5.43,25.33,20-3.17,10.17-9.11,3.28-14.92,2-8.07-1.85-11.06,5.13-5.88,9.35,10.18,8.3,37.56-5.33,19.24-29.27-8.15-10.63-27-9.39-37-.48C446.64,123.69,459.51,164.29,486.38,170.68ZM644.05,92.25c3.51-9.38-1.66-15.14-6.57-15.61-4.56-.43-9.29,3.84-9.72,7.7-1.34,11.28-18.58,2.71-14.59-10,4.13-13.16,14.94-21.71,28.44-20,30.52,3.89,40.72,41.33,22.14,63.56-19,22.68-52.23,26.58-72.62,47.9-6.68,7-9.48,13.73-11.89,22.63,3.17,2.11,4.68,2.86,6.79,4.82a34.68,34.68,0,0,1,4.32-11.67c7.12-13,20.58-20.81,33.38-27.34,13.81-7.07,28.55-13.16,40.46-23.34A52.8,52.8,0,0,0,683.07,92.7a46.58,46.58,0,0,0-21.82-41.84c-13.92-8.73-33.22-10.23-46.37.87-11.62,9.83-17.18,28.65-7.5,42C616.9,106.73,638.38,107.42,644.05,92.25ZM254.32,183.64a88.16,88.16,0,0,1,25.07-7c-12.3,11.07,6.27,33.11,20.29,13.48,1.51-2.11-.6-3.32-2.42-1.81-8.74,4.83-9-6.46-2.68-7.6,19.58-3.57,26.89,16.49,31.59,21.4,5.85,6.1,15.61,9.92,23.93,8.06-10.9,2.28-14.52,30.64,11.59,28.28,3.75-.34,7.69-4,5.85-9.65-.27-.84-1.21-.77-1.76,0-7.57,10.5-13.6-9.11-5.18-11,8-1.83,11.9,5.14,17.83,8.27,5.38,2.84,12,1.5,18,1.5,6.48,0,14.57,3.17,20.66,8.12.36-.2,1.23-.71,1.86-1.1-25.88-33.64-99.88-83.88-163.14-59-10.73,4.22-20.71,11.27-27.07,21,2.07.72,4.07,1.64,6.09,2.58a32.13,32.13,0,0,1,8.45-8.64c-5.45,9.91,9.64,18.06,18.12,6a.91.91,0,0,0-1.29-1.28C252.3,201,245.37,188.29,254.32,183.64Zm.71,59c3.91,3.31,10.21,4,12.08.6,6.3-11.64,13.9-27.15,25-26.25,9.6.78,15.4,11.55,11.56,21.61a32.9,32.9,0,0,1,4.64,1.1c4.36-10.34,4-22.71-5-29.59-17.49-13.34-36,1.13-39.21,7.18C262,221.18,249.29,236.56,255,242.6Zm8,14.59C248.45,255.37,236.41,247,231,233.14a32.44,32.44,0,0,1-2.21-17.32c-2.26-.23-4.07-1.58-6.34-2.94-2.05,11,.74,21.25,7,30.81,14.17,21.84,55.82,26.36,73.7,4.74.62-.74,1.2-1.53,1.76-2.35-1.57-.46-3.06-1.14-4.58-1.74C291.54,255.07,276.36,258.85,263.06,257.19Zm250.49-45.84c-8.38,1.51-14.11,9.6-9.3,17.5,2.09,3.42,5.5,5.79,9.78,5,1.51-.26,5.74-2.45,5.61-6.38a5.49,5.49,0,0,0-5.43-5.43,5.43,5.43,0,0,0-5.43,5.43,5.37,5.37,0,0,0,1.15,3.3,8.39,8.39,0,0,1-2.58-2.45C502,220.54,510,213.66,518,214.88c7.71,1.17,13.26,8.63,13.88,16.11.72,8.7-4.51,16.62-11.47,21.46-23.5,16.33-60.51,19.16-96.59-11.27-.59.38-1.71,1-1.71,1,10.75,12.65,33.49,24.17,52.39,25.89,17.47,1.58,42.41-3.2,54.66-17.66,6-7.05,8.8-17,5.36-25.87C531.32,216.18,522.82,209.69,513.56,211.35Zm46.07,42c-7-2.72-17.2-5.43-17.43-21.73-.1-7.5,6.8-15.61,14.51-16.77,8-1.21,16,5.65,10.68,13.49a8.78,8.78,0,0,1-1.15,1.35,5.42,5.42,0,1,0-10.15-3.7,6.21,6.21,0,0,0,4.61,7.88c4.22,1.08,7.7-1.63,9.79-5.05,4.8-7.89-.92-16-9.3-17.49-9.27-1.66-17.62,3.92-21.25,12.16-5.15,11.69,1.73,29.95,20.14,33.57,7.47,1.47,25.22.32,33.47-10.9-1.66-2-1-1.11-2.43-3C587,250.41,569.71,257.29,559.63,253.39Zm-397.54-31c-4.11,3.39-1.81,9.05,2.09,10.34,8.34,2.75,17.81,17.2,10.88,24s-16.82,4.6-24.21,2.24c9.43-.32,12.74-6.36,9.43-14.81-1-2.51-2.41-2.11-3,.3-19.15,12.31-28.39-22.22-7.84-35.3,18-11.47,37.23-8.38,52.06-4.36a301.11,301.11,0,0,1,44.75,16.51c3.33,1.5,6.9,3.12,10.64,4.79a37.63,37.63,0,0,1,2.79-4.39c-2.55-1.16-5.12-2.33-7.75-3.57a307.94,307.94,0,0,0-30.58-12.76c-17.38-6-36.48-10.2-55.44-8.63-37,3.06-53.65,43.79-79.08,58.6-10.49,6.11-20,8.87-28.32,9.42C45.14,263.25,31.41,253.47,30.21,240c-.63-7,6.08-16.32,13.69-11.48,3.14,2,4.5,6.34,1.32,9-3,2.55-8.09-1.68-4.67-4.16-4.41,2,.5,7.22,4,6.4,4.63-1.15,6.05-6.87,3.83-10.66-5.53-9.42-18.15-4.37-21,4.38-3.28,10,4.37,21,12.22,26.55a33.32,33.32,0,0,0,8.39,4.2c-20.62-3.44-32.34-20.58-33.43-27.67-1.21-7.85,0-16.34-5.43-17.5C.5,217.22-1.46,229,1,236.26,4,245.38,8.9,253.6,17,258.46,39.88,272.17,79.71,284.54,121,229c-.92,5,1.07,11.14,4.45,16.92,7.06,12.06,23.86,22.89,38.34,20.6,4.64-.72,27.19-5.08,24.49-28.76C187.36,229.12,172.35,213.93,162.09,222.38Zm444.64,10.71A34.48,34.48,0,0,1,604.9,239a27,27,0,0,0,2.68-5.62,34.37,34.37,0,0,0,1.4-6.12,37.26,37.26,0,0,0-.54-12.54A35.16,35.16,0,0,0,603.72,203c-2.27-3.51-5.35-6.7-9.24-8.25a19.8,19.8,0,0,1,4.6,4,26.75,26.75,0,0,1,3.45,5A41.74,41.74,0,0,1,606.66,215a44.7,44.7,0,0,1,.93,12A34.81,34.81,0,0,1,606.73,233.09Zm-22.87,27.2a40.55,40.55,0,0,1-16.85,3,41.16,41.16,0,0,1-16.71-3.77,35,35,0,0,1-13.16-11.14,30.81,30.81,0,0,0,12.53,12.37,38.53,38.53,0,0,0,17.28,4.35,37.89,37.89,0,0,0,17.47-3.53,39.14,39.14,0,0,0,7.57-4.72,36.39,36.39,0,0,0,6.14-6.38,42.62,42.62,0,0,1-6.67,5.66A38.83,38.83,0,0,1,583.86,260.29ZM457.79,209.71a119.62,119.62,0,0,1,25.45-19.57A118.69,118.69,0,0,1,512.85,178a102.92,102.92,0,0,1,31.73-3.46,76,76,0,0,1,30.89,8,64.66,64.66,0,0,0-14.82-6.48,79.59,79.59,0,0,0-16-2.89,100.29,100.29,0,0,0-32.28,3.09,114.73,114.73,0,0,0-29.85,12.67,113,113,0,0,0-13.21,9.42A100.15,100.15,0,0,0,457.79,209.71Zm30.71-29.91a105.73,105.73,0,0,0-23.92,18.14,118,118,0,0,1,11.81-9.2A120.21,120.21,0,0,1,489.17,181a121.87,121.87,0,0,1,27.75-10.68,93.21,93.21,0,0,1,29.48-2.92,59.64,59.64,0,0,1,28.17,8.79,50.45,50.45,0,0,0-13.29-7A64.79,64.79,0,0,0,546.51,166a90.68,90.68,0,0,0-30,2.54A116.65,116.65,0,0,0,488.5,179.79Zm-33.06,73.6a76.9,76.9,0,0,1-21.19-12,69.52,69.52,0,0,0,9.69,7.61,68.32,68.32,0,0,0,11,5.69,67,67,0,0,0,24.28,4.71,70.57,70.57,0,0,0,24.36-4.33,58.84,58.84,0,0,0,11.09-5.53,38.8,38.8,0,0,0,4.88-3.81,18.61,18.61,0,0,0,3.86-4.79c-2.33,3.39-5.73,5.81-9.21,7.85a58.31,58.31,0,0,1-11.09,5,72.56,72.56,0,0,1-23.88,3.84A68.65,68.65,0,0,1,455.44,253.39ZM493,249a74.63,74.63,0,0,1-17.4.75,65.4,65.4,0,0,1-17-3.46,50.68,50.68,0,0,1-15.23-8.53,40.65,40.65,0,0,0,6.82,5.69A49.57,49.57,0,0,0,458,247.6a56.86,56.86,0,0,0,17.4,4,63.36,63.36,0,0,0,17.8-1.2c5.77-1.3,11.64-3.24,16.15-7.16a30.22,30.22,0,0,1-7.92,3.74A54,54,0,0,1,493,249ZM255.26,157.3a13,13,0,0,0,7.79,2.86,28.25,28.25,0,0,0,8-.63,122.23,122.23,0,0,1,59.68.24c19.54,4.84,37.83,14.05,54.52,25.42a282.59,282.59,0,0,1,45.86,39.91,235,235,0,0,0-44.24-42.21c-16.58-12-35.21-21.6-55.26-26.64a125,125,0,0,0-30.67-3.74,118.54,118.54,0,0,0-30.55,4.26,25.63,25.63,0,0,1-7.16.77,10.86,10.86,0,0,1-6.39-2.05c-3.41-3-5.26-8.28-3.58-12.7a8.9,8.9,0,0,1,4.46-5.17,7.39,7.39,0,0,1,6.8.43,7,7,0,0,1,1.41,1.12,4.9,4.9,0,0,1,.94,1.46,5.06,5.06,0,0,1,.12,3.51,4.21,4.21,0,0,1-2.31,2.67,3.54,3.54,0,0,1-3.52-.6,3.67,3.67,0,0,0,3.61.85,4.61,4.61,0,0,0,2.73-2.74,5.67,5.67,0,0,0,.07-4,5.56,5.56,0,0,0-1-1.79,7.68,7.68,0,0,0-1.5-1.33,8.55,8.55,0,0,0-7.84-.89,8.69,8.69,0,0,0-3.39,2.35,12.11,12.11,0,0,0-2.21,3.44,12.7,12.7,0,0,0-.47,8.1A15,15,0,0,0,255.26,157.3Zm-30.72,18.28a16.15,16.15,0,0,0,8.61,3.61,24.08,24.08,0,0,0,9.2-.91,35.33,35.33,0,0,0,8.43-3.64l-.13.07a104.49,104.49,0,0,1,22.53-7.9,105.89,105.89,0,0,1,23.71-2.47c15.95.17,31.78,3.73,46.7,9.53A179.12,179.12,0,0,1,365.41,184a212.15,212.15,0,0,1,20.52,12.68A228.6,228.6,0,0,1,405,211.5a145.42,145.42,0,0,1,17,17.22,127.57,127.57,0,0,0-16.09-18.23,194.75,194.75,0,0,0-18.62-15.76,189.09,189.09,0,0,0-42.47-24.07c-15.19-6-31.46-9.83-47.94-9.84a101.2,101.2,0,0,0-47.48,11.46l-.05,0-.08,0c-4.72,2.85-10.43,4.89-15.91,4.45s-10.62-4.23-11.84-9.61a10.67,10.67,0,0,1,1.18-7.9,7.35,7.35,0,0,1,6.83-3.6,7.23,7.23,0,0,1,3.85,1.41,5,5,0,0,1,1.86,3.53,4.7,4.7,0,0,1-1.39,3.82,3.5,3.5,0,0,1-4,.37,3.66,3.66,0,0,0,4.22-.13,5.12,5.12,0,0,0,1.79-4.08,5.67,5.67,0,0,0-2-4.14,8.12,8.12,0,0,0-4.24-1.8,8.58,8.58,0,0,0-8.17,3.85,12.15,12.15,0,0,0-1.78,9.06A14.09,14.09,0,0,0,224.54,175.58ZM571.12,86.23a40.07,40.07,0,0,1,14-4.69,32.93,32.93,0,0,1,7.45-.22A22.86,22.86,0,0,1,599.91,83c-4.42-2.62-9.81-3.19-14.92-2.82a36.32,36.32,0,0,0-14.75,4.48,35.75,35.75,0,0,0-11.53,10.23,40.21,40.21,0,0,0-3.88,6.66,41.1,41.1,0,0,0-2.44,7.24,48.66,48.66,0,0,1,7.42-13A39.16,39.16,0,0,1,571.12,86.23Zm-74.4,70.53a22.32,22.32,0,0,0,11,2,24,24,0,0,0,10.77-3.58,28.46,28.46,0,0,0,8.23-7.78A21.08,21.08,0,0,0,530.81,137a26.48,26.48,0,0,1-5.21,9.53,32.57,32.57,0,0,1-8.06,7.09,26.23,26.23,0,0,1-10,3.72A28.69,28.69,0,0,1,496.72,156.75ZM310.65,236.4a282.19,282.19,0,0,0,28.16,7.7,149,149,0,0,0,31.44,3.52c10.54-.13,21.21-1.84,30.81-6.23a77.78,77.78,0,0,1-30.81,5.34,148.7,148.7,0,0,1-31.14-4c-9.5-2.17-18.85-4.9-28.1-7.95C310.91,235.33,310.78,235.87,310.65,236.4Zm-30.72-11c7.82,3,15.69,5.92,23.62,8.64a14.15,14.15,0,0,0,.14-1.72c-7.6-2.65-15.14-5.5-22.64-8.42A8.13,8.13,0,0,0,279.94,225.38ZM174,191.3a89.44,89.44,0,0,1,15.6,1.87,217.19,217.19,0,0,1,30.23,8.74c14.1,5,28,10.65,41.89,16.24a14.7,14.7,0,0,1,.81-1.52c-14-5.56-28-11.17-42.24-16a218,218,0,0,0-30.52-8.29A89.83,89.83,0,0,0,174,190.82a43.82,43.82,0,0,0-15.53,2.59A45.53,45.53,0,0,1,174,191.3Zm195.36,51.32a82.43,82.43,0,0,0,14.66-.51,44.66,44.66,0,0,0,14-4c-9,3.94-19,4.35-28.64,3.67a171.41,171.41,0,0,1-28.72-4.87c-9.7-2.41-19.28-5.26-28.79-8.37,0,.57-.12,1.12-.18,1.68,9.44,3,19,5.78,28.65,8A170.63,170.63,0,0,0,369.35,242.62ZM187.77,187.55A139.46,139.46,0,0,1,202,191c9.36,2.67,18.56,5.89,27.71,9.24,11.79,4.32,23.53,8.83,35.28,13.29.43-.45.86-.9,1.31-1.32-12-4.5-24-9-36.12-13.28-9.22-3.2-18.5-6.28-27.95-8.79a140.8,140.8,0,0,0-14.34-3,46.81,46.81,0,0,0-14.6-.3A49.05,49.05,0,0,1,187.77,187.55Zm98.29,31.93q-.71.7-1.53,1.36,9.26,3.32,18.59,6.47c-.15-.67-.33-1.33-.52-2Q294.31,222.48,286.06,219.47ZM96.69,243.76c11.19-7,20-16.82,29.19-26.21-9,7.12-16.91,15.3-26.6,21.59C90.7,244.71,78,251.3,67.95,245.68a12.48,12.48,0,0,1-6.64-11.74c.42-4.67,5.17-9.13,10.08-7.15,2,.8,3.73,3.26,3.23,5.44-.67,3.43-6.65,4.42-6.19.22-1.57,4.92,6.5,4.36,7.85.26,1-3.18-.91-6.88-3.83-8.28-5.2-2.4-11.49.5-13.72,5.59-2.38,5.42-.39,12,3.74,16C72.15,255.28,86.92,249.91,96.69,243.76ZM423.39,178c5.47-.34,12.11-5.5,11.66-11.29.69-3.33-3.64-7.2-6.9-7.08-7.18.27-7.48,14.15-17.44,12.62a21.52,21.52,0,0,1-8-15c-1-16.64,16.66-26,31.36-21.6a35.8,35.8,0,0,1,15.48,9.72c-6.27-5-22-3.84-19.84,10.36a.94.94,0,0,0,1.54.63c9.32-7.88,24.71,6.9,22.9,16.56-13.25-6.34-24.44,6-22,14.18.22.74,1.07,1.24,1.56.63,3.55-4.27,8.91-2.69,11.12,1.48,1.59,3,5.57,10.72.15,26.39a7.68,7.68,0,0,0-3-6.59c-3.42-2.82-10-1.6-10.2,3.54a4,4,0,0,0,2.44,4,3,3,0,0,0,3.59-1.24,1.56,1.56,0,0,0-.28-2.14,1.38,1.38,0,0,0-2.06,0,1.58,1.58,0,0,0,0,2.23,1.51,1.51,0,0,0,.77.41,2.32,2.32,0,0,1-1.46,0,2.51,2.51,0,0,1-1.28-3.1c1.28-5,7.63-2.61,8.85,1s-1.14,7.84-3.43,10.68c-17.49,11.06-35.75,20.52-56.62,25.38C363.15,254.31,329.71,251,276.57,229c-1,1.41-2,2.84-3,4.31,28.29,11.87,62.63,23.84,91.56,23.17,27.74-.64,54.73-13.46,78.5-28.45.78-.24,1.48-.42,2-.54,3.08-.71,7.39-1.06,9.81,1.43s1.66,8.1-2.62,7.16a2.14,2.14,0,0,1-1.87-2.17,2,2,0,0,1,.54-1.12,1.35,1.35,0,0,0,1.71,1.63,1.18,1.18,0,0,0,.82-1.56,1.34,1.34,0,0,0-1.53-1,2.57,2.57,0,0,0-2.33,2.27,3.38,3.38,0,0,0,2.14,3.42c4,1.86,7.46-2.72,6.63-6.42-1.2-5.34-6.59-6.33-11.87-5.26q2.18-1.41,4.33-2.84,2.78-1.85,5.55-3.75l.14-.05c4.31-1.51,10.45-2.72,14.34.46,3.71,3,3.7,11.37-2.6,10.72a3.09,3.09,0,0,1-3-2.81,2.88,2.88,0,0,1,.6-1.7,1.94,1.94,0,0,0,2.72,2.06,1.7,1.7,0,0,0,.93-2.37,1.94,1.94,0,0,0-2.37-1.25,3.73,3.73,0,0,0-3,3.64,4.88,4.88,0,0,0,3.63,4.56c6,2,10.28-5.12,8.49-10.3-2.22-6.43-8.37-7.73-14.75-6.46,3.47-2.38,7-4.76,10.46-7.1,5.66-2.31,12.19-3.56,17.44-.63,6.78,3.72,9.16,17.1-1.09,17.85-2.51.16-5.07-.93-5.66-3.62a4.7,4.7,0,0,1,.46-2.89,3.15,3.15,0,0,0,4.94,2.51,2.76,2.76,0,0,0,.81-4.05,3.15,3.15,0,0,0-4.14-1.32,6.05,6.05,0,0,0-3.71,6.66c.58,3.57,3.72,5.76,7.1,6.25,10.2,1.5,15-11.12,10.61-18.87-3.81-6.81-10-9-16.81-8.28,16.21-9.93,33.38-17.8,53.25-18.49,14.5-.49,27.55.82,40.14,8.44,10.83,6.56,25.35,19.17,21.57,42.09.61.76,1.32,1.37,2.23,2.42,8.75-30.32-16.78-48-37.83-53.87-30.4-8.4-59.68-1.47-84.79,15.69-9.57,6.55-19,13.26-28.52,19.65,11.42-15,19.52-35.4,14.94-53.44s-19.31-34.7-41.38-31.8c-16.35,2.15-27,20-17.91,34.64C408.48,174.37,415.27,178.55,423.39,178Zm132.16-25.65c-4.52-10.86-20.52.3-26.25,10C536.85,156,561.37,166.34,555.55,152.38Zm-41.41,55.18c13.81-1.92,21.73,10.18,23.42,15.61,2.38-5.43,11.09-17.88,23.54-15-6.68-6.68-13.92-6.79-20.37-1.7,5.77-5.43,1.7-13.58-2.72-18.33-5.43,4.64-8.37,13.69-3.73,18.33C529.31,202.8,523.42,199.19,514.14,207.56ZM500,122.43a1.85,1.85,0,0,0,0,2.57,1.92,1.92,0,0,0,1.29.52,1.9,1.9,0,0,0,1.28-.52,1.83,1.83,0,0,0,0-2.57A1.9,1.9,0,0,0,500,122.43ZM485.2,109a1.81,1.81,0,0,0-.62-3.57,1.8,1.8,0,0,0,.31,3.58Zm13.9,2.46a1.81,1.81,0,0,0-.38,2.54,1.75,1.75,0,0,0,1.45.74,1.86,1.86,0,0,0,1.09-.37,1.81,1.81,0,1,0-2.15-2.91Zm5,6.48a1.81,1.81,0,1,0-1.81,2,.89.89,0,0,0,.21,0A1.81,1.81,0,0,0,504.12,118Zm-13.85-9a1.8,1.8,0,0,0,.31,0,1.81,1.81,0,0,0,.31-3.6,1.81,1.81,0,0,0-.62,3.56Zm-11.61-1.58a1.81,1.81,0,0,0,.82,3.43,1.63,1.63,0,0,0,.81-.2,1.81,1.81,0,0,0-1.63-3.23ZM495.94,111a1.82,1.82,0,1,0-.92-.25A1.67,1.67,0,0,0,495.94,111Zm-22.52,0a1.82,1.82,0,0,0-.54,1.29,1.86,1.86,0,0,0,1.81,1.81,1.81,1.81,0,0,0,1.29-.54,1.75,1.75,0,0,0,.52-1.26A1.79,1.79,0,0,0,476,111,1.88,1.88,0,0,0,473.42,111Zm-39.69,29.71a1.81,1.81,0,0,0,.53-1.27,1.85,1.85,0,0,0-.53-1.28,1.89,1.89,0,0,0-2.57,0,1.81,1.81,0,0,0-.52,1.28,1.75,1.75,0,0,0,.52,1.27,1.79,1.79,0,0,0,2.57,0Zm-11.91-2.9a1.81,1.81,0,0,0,.47,3.55,2.2,2.2,0,0,0,.49-.06,1.81,1.81,0,1,0-1-3.5Zm-10.41,11.37a1.81,1.81,0,1,0-3-2h0a1.79,1.79,0,0,0,.49,2.5,1.75,1.75,0,0,0,1,.3A1.78,1.78,0,0,0,411.41,149.15Zm5.27-9.34a1.82,1.82,0,0,0,.85,3.42,1.84,1.84,0,0,0,.85-.22,1.82,1.82,0,0,0-1.7-3.21Zm8.87-1a1.82,1.82,0,0,0,1.83,1.76h0a1.81,1.81,0,0,0-.09-3.62A1.83,1.83,0,0,0,425.55,138.81Zm-16.73,19A1.81,1.81,0,0,0,407,156a1.8,1.8,0,1,0,1.83,1.79Zm4.47-11.71a1.85,1.85,0,0,0,1.2-.44,1.81,1.81,0,1,0-2.39-2.73,1.81,1.81,0,0,0-.16,2.55A1.76,1.76,0,0,0,413.29,146.11ZM408.24,151a1.81,1.81,0,1,0-1,3.48,2.6,2.6,0,0,0,.51.07,1.81,1.81,0,0,0,.52-3.55Zm-.54,13.73a1.89,1.89,0,0,0,1.29-.53,1.83,1.83,0,0,0,0-2.57,1.81,1.81,0,0,0-3.09,1.29,1.82,1.82,0,0,0,.52,1.26A1.84,1.84,0,0,0,407.7,164.76ZM643.58,60.28a1.85,1.85,0,0,0-.53,1.28,1.82,1.82,0,0,0,.53,1.26,1.85,1.85,0,0,0,1.28.54,1.83,1.83,0,0,0,1.81-1.81,1.77,1.77,0,0,0-.53-1.28A1.89,1.89,0,0,0,643.58,60.28Zm-9.89-1.67a1.81,1.81,0,0,0,.4,3.58,3.69,3.69,0,0,0,.38,0,1.82,1.82,0,0,0-.78-3.55Zm-15,18.09a2.08,2.08,0,0,0,.32,0,1.82,1.82,0,0,0,1.79-1.48,1.81,1.81,0,0,0-3.57-.65A1.81,1.81,0,0,0,618.67,76.7Zm.32,5.52a1.65,1.65,0,0,0,.29,0,1.86,1.86,0,1,0-.29,0Zm5.38-15a1.77,1.77,0,0,0,1.23-.49,1.8,1.8,0,0,0,.11-2.55,1.83,1.83,0,0,0-2.57-.11,1.81,1.81,0,0,0-.09,2.55A1.76,1.76,0,0,0,624.37,67.26Zm-2.55.9a1.83,1.83,0,0,0-2.48.67A1.8,1.8,0,0,0,620,71.3a1.7,1.7,0,0,0,.91.25,1.84,1.84,0,0,0,1.57-.91h0A1.81,1.81,0,0,0,621.82,68.17Zm6.25-7.5a1.8,1.8,0,0,0,.83,3.41,1.7,1.7,0,0,0,.83-.2,1.8,1.8,0,0,0,.76-2.44A1.78,1.78,0,0,0,628.07,60.67Zm9.72-.83a1.8,1.8,0,0,0,1.63,2,.52.52,0,0,0,.16,0,1.82,1.82,0,1,0-1.79-2ZM620.73,87.5A1.91,1.91,0,0,0,622,87a1.81,1.81,0,1,0-2.57,0A1.91,1.91,0,0,0,620.73,87.5Zm-34.4,153.58a1.81,1.81,0,0,0,1.28-.53,1.9,1.9,0,0,0,.53-1.28,1.82,1.82,0,0,0-.53-1.27,1.88,1.88,0,0,0-2.57,0,1.83,1.83,0,0,0-.52,1.27,1.87,1.87,0,0,0,.52,1.28A1.83,1.83,0,0,0,586.33,241.08Zm-12.47,8.4a1.81,1.81,0,0,0,1.75-2.26,1.81,1.81,0,1,0-1.75,2.26Zm-5.14-2.86a1.81,1.81,0,0,0,.09,3.62h.09a1.83,1.83,0,0,0,1.72-1.9A1.81,1.81,0,0,0,568.72,246.62Zm9.94,1.07a1.89,1.89,0,0,0,.81-.18,1.86,1.86,0,1,0-.81.18Zm-28.12-5a1.75,1.75,0,0,0,1.16-.43,1.8,1.8,0,0,0,.22-2.56,1.81,1.81,0,1,0-2.75,2.34A1.74,1.74,0,0,0,550.54,242.68Zm6.55,3.42a1.81,1.81,0,0,0,1,2.35,1.66,1.66,0,0,0,.67.13,1.81,1.81,0,1,0-1.68-2.48Zm4.82,1.74a1.8,1.8,0,0,0,1.5,2.08,1.21,1.21,0,0,0,.29,0,1.81,1.81,0,1,0-1.79-2.12Zm19.82-6.15v0a1.81,1.81,0,0,0-.2,2.55,1.83,1.83,0,0,0,1.37.63,1.81,1.81,0,0,0,1.18-.44,1.8,1.8,0,0,0,.2-2.55A1.82,1.82,0,0,0,581.74,241.68Zm-28.91,1.59a1.82,1.82,0,0,0,1.47,2.86,1.87,1.87,0,0,0,1.49-.76,1.81,1.81,0,1,0-3-2.1Zm-3.84-8a1.87,1.87,0,0,0-2.55,0,1.74,1.74,0,0,0-.53,1.27,1.81,1.81,0,0,0,3.62,0A1.83,1.83,0,0,0,549,235.27ZM216,213.86a1.83,1.83,0,0,0,0,2.57,1.86,1.86,0,0,0,1.28.53,1.8,1.8,0,0,0,1.27-3.09A1.87,1.87,0,0,0,216,213.86Zm-25.29-8.24a1.82,1.82,0,0,0-2.08,1.48,1.84,1.84,0,0,0,1.5,2.09,1.93,1.93,0,0,0,.29,0,1.83,1.83,0,0,0,1.79-1.52A1.81,1.81,0,0,0,190.73,205.62Zm11.12,2.51a1.8,1.8,0,1,0-1,3.47,1.48,1.48,0,0,0,.49.08,1.81,1.81,0,0,0,.49-3.55ZM147,215.7a1.8,1.8,0,0,0,1.14,3.2,1.83,1.83,0,0,0,1.14-.39A1.81,1.81,0,0,0,147,215.7Zm65.59-4.11a1.84,1.84,0,0,0-2.32,1.12,1.81,1.81,0,0,0,1.12,2.3,1.74,1.74,0,0,0,.6.11,1.82,1.82,0,0,0,.6-3.53Zm-5.34-1.81a1.81,1.81,0,1,0-1.12,3.44,1.51,1.51,0,0,0,.56.09,1.81,1.81,0,0,0,.56-3.53Zm-39.47-4a1.81,1.81,0,0,0,.38,3.59,1.28,1.28,0,0,0,.36,0,1.79,1.79,0,0,0,1.39-2.14A1.82,1.82,0,0,0,167.81,205.78Zm4.09,1.1a1.82,1.82,0,0,0,1.81,1.65.74.74,0,0,0,.18,0,1.78,1.78,0,0,0,1.61-2,1.81,1.81,0,0,0-2-1.63A1.83,1.83,0,0,0,171.91,206.88Zm11.19-.34a1.82,1.82,0,0,0,1.65,2h.16a1.79,1.79,0,0,0,1.79-1.65,1.81,1.81,0,1,0-3.6-.32Zm-20.89.76a1.81,1.81,0,0,0,.58,3.53,1.66,1.66,0,0,0,.58-.09,1.8,1.8,0,0,0,1.14-2.3A1.83,1.83,0,0,0,162.2,207.3Zm15.3-.85a1.81,1.81,0,1,0,1.81-1.81A1.8,1.8,0,0,0,177.5,206.45Zm18.85.27a1.79,1.79,0,0,0-2.17,1.35,1.82,1.82,0,0,0,1.36,2.18,3.87,3.87,0,0,0,.41,0,1.81,1.81,0,0,0,.4-3.57Zm-44.61,5.59a1.8,1.8,0,0,0-.56,2.48,1.83,1.83,0,0,0,1.54.85,1.69,1.69,0,0,0,1-.29,1.8,1.8,0,1,0-1.94-3Zm5.09-2.82a1.81,1.81,0,0,0,.78,3.44,1.64,1.64,0,0,0,.78-.19,1.81,1.81,0,1,0-1.56-3.26Zm-14.12,10.1a1.81,1.81,0,0,0-.54,1.28,1.85,1.85,0,0,0,1.83,1.81,1.76,1.76,0,0,0,1.27-.54,1.78,1.78,0,0,0,.54-1.27,1.8,1.8,0,0,0-.54-1.28A1.87,1.87,0,0,0,142.7,219.59ZM420,245.54a1.86,1.86,0,0,0-.54,1.29,1.83,1.83,0,0,0,1.81,1.81,1.87,1.87,0,0,0,1.28-.53,1.8,1.8,0,0,0,.53-1.28,1.83,1.83,0,0,0-.53-1.29A1.88,1.88,0,0,0,420,245.54Zm-106.6,7.21a1.82,1.82,0,0,0-1.38,3.37,1.9,1.9,0,0,0,.69.12,1.81,1.81,0,0,0,.69-3.49ZM415.84,248a1.81,1.81,0,0,0,.85,3.41,1.9,1.9,0,0,0,.87-.22,1.84,1.84,0,0,0,.72-2.46A1.78,1.78,0,0,0,415.84,248Zm-92.51,8.17a1.82,1.82,0,0,0-2.24,1.25,1.8,1.8,0,0,0,1.25,2.22,1.47,1.47,0,0,0,.49.07,1.83,1.83,0,0,0,1.76-1.32A1.81,1.81,0,0,0,323.33,256.15Zm-5-1.56a1.81,1.81,0,0,0-1.18,3.42,1.74,1.74,0,0,0,.6.09,1.8,1.8,0,0,0,.58-3.51Zm10.1,2.86a1.8,1.8,0,0,0-2.17,1.35A1.82,1.82,0,0,0,327.6,261a3,3,0,0,0,.42,0,1.8,1.8,0,0,0,.4-3.56Zm73-3.43v0a1.81,1.81,0,0,0,.54,3.53,1.77,1.77,0,0,0,.56-.09,1.82,1.82,0,1,0-1.1-3.46Zm-15.32,3.92a1.81,1.81,0,0,0,.35,3.58,1.84,1.84,0,0,0,.33,0,1.8,1.8,0,1,0-.67-3.54Zm20.26-5.65a1.82,1.82,0,0,0,.65,3.51,2.13,2.13,0,0,0,.65-.12,1.81,1.81,0,0,0-1.3-3.39Zm-15.1,4.55a1.81,1.81,0,0,0,.4,3.58,1.63,1.63,0,0,0,.42-.05,1.8,1.8,0,0,0,1.36-2.17A1.82,1.82,0,0,0,391.22,256.84Zm5.1-1.29a1.81,1.81,0,0,0,.49,3.55,2.15,2.15,0,0,0,.47-.05,1.81,1.81,0,0,0-1-3.5Zm14.83-5.26a1.82,1.82,0,0,0-.9,2.39,1.81,1.81,0,0,0,2.41.9,1.8,1.8,0,0,0,.91-2.39A1.82,1.82,0,0,0,411.16,250.28Zm-77.58,8.22v0a1.79,1.79,0,0,0-2.12,1.45,1.82,1.82,0,0,0,1.47,2.1,2.46,2.46,0,0,0,.32,0,1.82,1.82,0,0,0,.33-3.6Zm31.52,1.94a1.79,1.79,0,0,0-1.72,1.88,1.82,1.82,0,0,0,1.81,1.73h.09a1.79,1.79,0,0,0,1.72-1.88A1.81,1.81,0,0,0,365.1,260.44Zm5.27-.36a1.81,1.81,0,0,0,.16,3.62h.14a1.81,1.81,0,0,0,1.65-2A1.83,1.83,0,0,0,370.37,260.08Zm5.25-.52a1.81,1.81,0,0,0,.22,3.6h.22a1.81,1.81,0,1,0-.43-3.6Zm5.23-.71a1.8,1.8,0,0,0,.29,3.59,1.28,1.28,0,0,0,.27,0,1.81,1.81,0,0,0-.56-3.57Zm-21,1.76a1.81,1.81,0,0,0,0,3.62h0a1.81,1.81,0,1,0,0-3.62Zm-5.29,0a1.81,1.81,0,0,0-1.85,1.77,1.83,1.83,0,0,0,1.78,1.85h0a1.81,1.81,0,0,0,0-3.62Zm-15.77-1.25a1.82,1.82,0,1,0-.49,3.6l.24,0a1.82,1.82,0,0,0,.25-3.62ZM344,260a1.8,1.8,0,1,0-.34,3.58.51.51,0,0,0,.18,0A1.81,1.81,0,0,0,344,260Zm5.27.4a1.81,1.81,0,0,0-.22,3.62h.11a1.81,1.81,0,0,0,.11-3.62ZM306.55,251a1.83,1.83,0,0,0,0,2.57,1.85,1.85,0,0,0,1.29.52,1.81,1.81,0,0,0,1.27-.52,1.79,1.79,0,0,0,0-2.57A1.87,1.87,0,0,0,306.55,251Zm363.87-87.76c-6-2.12-14.29-.72-15.5,6.06-.78,3,1.91,2.75,1.91,2.71,11.43-6.61,23.32,12.13,19.05,23.5-.62-9.26-17.85-16.29-19.44-6,12.57,4.6,17.05,14.64,17.11,25.95-2.44-8.39-8.14-15.72-15.69-19.11-8.51-4.7-26.92-6.55-27.59,5.67a7.89,7.89,0,0,0,8.82,8.15c4.8-.54,7.69-6.57,12.22-6.57a12.3,12.3,0,0,1,11.77,12.23c.23,10.63-13.56,7.68-13.12,19.46.23,6.12-2.49,14.94-9.05,17.16,5.66-6.29,2.72-31.87-22.81-21.42a.72.72,0,0,0-.16.27.91.91,0,0,0,.34,1.74c4.33-.16,9.79,3.3,9.6,8.3-.27,6.46-7.24,8.22-12.56,7a34.84,34.84,0,0,1-12.84-5.92,58.24,58.24,0,0,1-12.89-18c-3.7-8-6.19-15.71-5.7-24.32-2.26-2.56-4.68-3.62-7.39-6-1.51,17.35,2.92,33.84,14,47.65,16.91,21,47.77,26.14,71.6,10.24C694.15,230.53,693.55,171.39,670.42,163.21Zm16.14-77a48.66,48.66,0,0,0-3.19-14.37,42.55,42.55,0,0,0-7.64-12.6,47,47,0,0,0-5.3-5.1,44.86,44.86,0,0,0-6.08-4.06,56.77,56.77,0,0,1,10.31,10.05,49.53,49.53,0,0,1,7,12.37,58.64,58.64,0,0,1,3.5,13.84,59.57,59.57,0,0,1,.52,7.18,56,56,0,0,1-.24,7.24A47.1,47.1,0,0,0,686.56,86.22Zm99.79,107.93c1.17,1.6,2.35.95,1.77-1.37-10.62-42.59-85.29-41.62-95.77-86.05-.27-1.14-1.56-.64-1.73.5-2.7,17.69,11.11,60.25,53.58,54.86-5.84,3.67-6.51,18.39,8.54,24.91h0a.91.91,0,0,0,1.05-1.12C752.26,180,764.87,164.63,786.35,194.15Zm-74.43-82.93a37.07,37.07,0,0,0,7.08,8.15c5.38,4.68,11.45,8.22,17.56,11.51,12.29,6.46,25,11.67,36.92,18.34,5.9,3.37,11.65,7.09,16.4,11.9a33.15,33.15,0,0,1,6,8.08,27.76,27.76,0,0,1,2.93,9.74c.14-7-3.11-13.74-7.68-19a70.25,70.25,0,0,0-16.26-13.12c-11.86-7.31-24.62-12.69-36.66-19.11a94.79,94.79,0,0,1-17-10.91,34,34,0,0,1-6.61-7.2,12.57,12.57,0,0,1-1.29-4.28,13.19,13.19,0,0,1,.1-4.62,7.33,7.33,0,0,1,2-3.8,8.3,8.3,0,0,1,12.13.91,7.11,7.11,0,0,1,1.8,4.22,6.74,6.74,0,0,1-1.36,4.46,5.64,5.64,0,0,1-4,2.38,4.7,4.7,0,0,1-4.23-2.23,5,5,0,0,0,4.23,2.77,6.34,6.34,0,0,0,4.78-2.32,7.89,7.89,0,0,0,2-5.08A8.7,8.7,0,0,0,729,96.69a10.44,10.44,0,0,0-15.3-1.76,10,10,0,0,0-3,5.07,16.17,16.17,0,0,0-.37,5.64A15,15,0,0,0,711.92,111.21Zm82.55,46.29a51,51,0,0,0-10.59-11.25c-8.1-6.5-17.6-10.73-26.67-15-4.51-2.16-9.11-4.29-12.66-7.34a11.29,11.29,0,0,1-3.74-5.37,8,8,0,0,1,.34-6.15,6.45,6.45,0,0,1,5.28-2.89,6.63,6.63,0,0,1,5.78,2.5,6.51,6.51,0,0,1,1.22,3.13,4.26,4.26,0,0,1-.71,3.21,3.38,3.38,0,0,1-3,1.44,3.87,3.87,0,0,1-2.94-2,4.15,4.15,0,0,0,2.87,2.48,4.09,4.09,0,0,0,3.75-1.37,5.47,5.47,0,0,0,1.32-3.89,8.05,8.05,0,0,0-1.08-4c-3.13-5-11.27-5.4-15-.17a10.59,10.59,0,0,0-1,8.54,14.43,14.43,0,0,0,4.54,7.09c4.14,3.6,8.84,5.8,13.42,8,9.22,4.26,18.45,8.2,26.54,14a51.2,51.2,0,0,1,18.48,23A43.83,43.83,0,0,0,794.47,157.5ZM729.59,64.17a.92.92,0,0,0-.2-1.79c-16-.47-22.43,18.59-23.1,31.47a.82.82,0,0,0,1,.85.86.86,0,0,0,1-.62c1.81-5.76,11.79-9,16.61-5a1,1,0,0,0,1.56-.58,1,1,0,0,0,.18-.27c2.29-6.58-3.6-13.14-7.39-10.45C719.88,71,725.31,67.36,729.59,64.17ZM798,88.41c-13.54-3-22,1.28-28.06,8.36-5.58,6.55-7.79,17.74-1.63,24.73,5.4,6.14,11.36,7.42,16.57,3.12,3.46-2.86,4.3-10.63.78-14.26-2.78-2.87-5.53-5.77-5.83-10-.38-5.39,17-15.57,41.77,16.31-17.93-12.65-41,8.85-24.72,28.09,9.41,11.11,26.42,5.13,25.12-5.87a7.36,7.36,0,0,0-11.54-5.22c-3,1.94-3.62,7,.22,8.84.1,0,.18,0,.27-.08,2.67,6.86-9.1,5.73-10.84-.09-1.37-4.55-.74-12.75,5.37-17,5.34-3.76,18.31.41,26.25,12C842.54,153.13,865,177.1,892,170.68s39.74-47,18.25-66.23c-9.94-8.91-28.81-10.15-37,.48-18.33,23.93,9.05,37.57,19.24,29.27,5.18-4.22,2.19-11.19-5.88-9.35-5.81,1.32-11.74,8.21-14.92-2-4.54-14.56,14-23.83,25.33-20a21.59,21.59,0,0,1,14.55,16.84c-8.67-4.85-14.1,6.47-12.29,11.44.4,1.1,19,3.86,6,18.23-.11-4.87-10.06-12.34-17.94-6.15a.93.93,0,0,0,.42,1.74c4.89.25,4.31,6.7,3,9.7-1.75,4.13-12.1,14.74-29.83,5.74H861a62.47,62.47,0,0,1-12.75-11.1,52.25,52.25,0,0,1-2.85-5.18c-2.27-4.77-4.41-11.69-1.23-16.55,3-4.63,12.62-5.66,12.65,1.68,0,1.79-.91,3.56-2.86,3.84a3.35,3.35,0,0,1-2-.48,2.25,2.25,0,0,0,2-3.39,2,2,0,0,0-2.84-.77,2.24,2.24,0,0,0-1.14,2.88,4.32,4.32,0,0,0,4.55,3,5.67,5.67,0,0,0,4.8-4.74c1.58-7.18-7.16-11.19-12.89-8.5-7.87,3.69-8,12.15-4.81,20-2.75-3.73-5.33-7.61-7.79-11.47a70.72,70.72,0,0,1-.34-14.71c.6-7.39,2.87-17.28,10.15-20.95,6.88-3.52,19.29,2,14.16,10.93-1.28,2.16-3.61,3.67-6.17,2.65a4.71,4.71,0,0,1-2.13-2,3.16,3.16,0,0,0,4.86-2.67,2.77,2.77,0,0,0-2.9-2.94,3.15,3.15,0,0,0-3.41,2.69,6,6,0,0,0,3.43,6.81c3.28,1.53,6.85.16,9.16-2.37,7-7.6-.8-18.61-9.66-19.38-18-1.56-22.6,21.59-19.63,38-1.57-2.5-3.1-5-4.6-7.33C819.93,107.73,811.16,91.37,798,88.41ZM695.34,92.7a52.82,52.82,0,0,0,18.86,38.22c11.92,10.18,26.65,16.27,40.47,23.34,12.8,6.53,26.27,14.3,33.39,27.34a34.71,34.71,0,0,1,4.32,11.67c2.11-2,3.62-2.71,6.79-4.82-2.42-8.9-5.21-15.64-11.89-22.63-20.39-21.33-53.66-25.22-72.62-47.9-18.58-22.23-8.38-59.67,22.14-63.56,13.5-1.7,24.31,6.84,28.44,20,4,12.71-13.25,21.27-14.59,10-.44-3.86-5.16-8.13-9.72-7.7-4.91.47-10.09,6.23-6.57,15.61C740,107.42,761.51,106.73,771,93.7c9.68-13.31,4.13-32.13-7.5-42-13.14-11.1-32.44-9.6-46.36-.87A46.57,46.57,0,0,0,695.34,92.7Zm448.25,106.38a65.94,65.94,0,0,1,6.09-2.58c-6.36-9.7-16.33-16.76-27.07-21-63.27-24.89-137.27,25.35-163.14,59,.63.39,1.5.9,1.87,1.1,6.09-4.95,14.18-8.1,20.66-8.12,6,0,12.61,1.34,18-1.5,5.92-3.13,9.85-10.11,17.82-8.27,8.43,1.94,2.39,21.55-5.18,11-.55-.77-1.49-.84-1.76,0-1.84,5.68,2.1,9.31,5.85,9.65,26.11,2.37,22.49-26,11.58-28.28,8.33,1.86,18.09-2,23.94-8.06,4.7-4.91,12-25,31.59-21.4,6.27,1.14,6.07,12.43-2.68,7.6-1.82-1.51-3.93-.3-2.42,1.81,14,19.62,32.59-2.41,20.29-13.48a88.16,88.16,0,0,1,25.08,7c8.95,4.65,2,17.32-5.8,11.55a.91.91,0,0,0-1.28,1.28c8.49,12,23.57,3.88,18.12-6A32.18,32.18,0,0,1,1143.59,199.08Zm-20.2,43.52c5.73-6-7-21.42-9.06-25.34-3.24-6.05-21.73-20.52-39.22-7.18-9,6.88-9.4,19.25-5,29.59a33,33,0,0,1,4.64-1.1c-3.85-10.07,2-20.83,11.56-21.61,11.13-.9,18.74,14.61,25,26.25C1113.17,246.61,1119.47,245.91,1123.39,242.6Zm26.25-26.78a32.39,32.39,0,0,1-2.21,17.32C1142,247,1130,255.37,1115.34,257.19c-13.29,1.66-28.48-2.13-37.21-12.84-1.52.59-3,1.27-4.58,1.74.56.82,1.14,1.6,1.76,2.35,17.89,21.62,59.53,17.09,73.71-4.74,6.22-9.56,9-19.78,7-30.81C1153.71,214.24,1151.9,215.59,1149.64,215.82ZM954.55,241.17c-36.08,30.43-73.09,27.61-96.59,11.27-7-4.83-12.19-12.76-11.47-21.46.62-7.48,6.16-14.94,13.88-16.11,8-1.22,16,5.66,10.68,13.49a8.4,8.4,0,0,1-2.58,2.45,5.41,5.41,0,0,0-4.29-8.74,5.5,5.5,0,0,0-5.43,5.43c-.12,3.94,4.1,6.12,5.62,6.38,4.27.74,7.69-1.63,9.78-5,4.81-7.9-.92-16-9.3-17.5-9.27-1.66-17.76,4.83-21,13.22-3.44,8.89-.67,18.82,5.36,25.87,12.25,14.47,37.19,19.25,54.65,17.66,18.9-1.71,41.64-13.24,52.39-25.89C956.25,242.21,955.14,241.55,954.55,241.17Zm-167.26,2c-1.47,1.91-.77,1-2.43,3,8.25,11.22,26,12.37,33.47,10.9,18.4-3.62,25.29-21.88,20.14-33.57-3.63-8.24-12-13.82-21.25-12.16-8.38,1.5-14.1,9.6-9.31,17.49,2.1,3.42,5.58,6.14,9.8,5.05a6.21,6.21,0,0,0,4.61-7.88,5.42,5.42,0,1,0-10.15,3.7,8.84,8.84,0,0,1-1.15-1.35c-5.31-7.84,2.68-14.7,10.68-13.49,7.71,1.16,14.62,9.27,14.51,16.77-.23,16.29-10.41,19-17.42,21.73C808.7,257.29,791.36,250.41,787.29,243.17Zm582-24.1c-5.43,1.16-4.22,9.65-5.43,17.5-1.09,7.09-12.82,24.23-33.43,27.67a33.28,33.28,0,0,0,8.39-4.2c7.86-5.56,15.5-16.54,12.22-26.55-2.86-8.75-15.49-13.79-21-4.37-2.22,3.79-.81,9.51,3.83,10.66,3.48.82,8.4-4.38,4-6.4,3.42,2.49-1.65,6.72-4.67,4.16-3.17-2.69-1.81-7,1.33-9,7.61-4.84,14.32,4.49,13.69,11.48-1.2,13.48-14.93,23.26-28.29,24.73-8.37-.55-17.82-3.31-28.32-9.42-25.43-14.81-42.08-55.54-79.08-58.6-19-1.57-38.06,2.66-55.43,8.63a307.82,307.82,0,0,0-30.58,12.76c-2.63,1.23-5.2,2.41-7.75,3.57a37.65,37.65,0,0,1,2.79,4.39c3.74-1.67,7.31-3.28,10.65-4.79a301.14,301.14,0,0,1,44.75-16.51c14.82-4,34.05-7.11,52.06,4.36,20.55,13.09,11.31,47.61-7.85,35.3-.6-2.41-2-2.81-3-.3-3.32,8.45,0,14.48,9.43,14.81-7.39,2.36-17.27,4.5-24.21-2.24s2.53-21.2,10.88-24c3.9-1.29,6.2-7,2.09-10.34-10.26-8.45-25.27,6.74-26.25,15.39-2.7,23.69,19.86,28,24.49,28.76,14.48,2.29,31.28-8.54,38.34-20.6,3.39-5.78,5.38-11.9,4.46-16.92,41.34,55.52,81.17,43.15,104,29.44,8.12-4.86,13-13.08,16.06-22.2C1379.86,229,1377.91,217.22,1369.3,219.06ZM775.88,203.74a26.8,26.8,0,0,1,3.44-5,19.82,19.82,0,0,1,4.6-4c-3.89,1.54-7,4.74-9.24,8.25A35.21,35.21,0,0,0,770,214.67a37.23,37.23,0,0,0-.54,12.54,34.17,34.17,0,0,0,1.4,6.12,27,27,0,0,0,2.68,5.63,38.08,38.08,0,0,1-2.7-11.87,44.86,44.86,0,0,1,.93-12A41.85,41.85,0,0,1,775.88,203.74Zm52.23,55.78a41.18,41.18,0,0,1-16.71,3.77,40.56,40.56,0,0,1-16.86-3,38.77,38.77,0,0,1-7.6-4.16,42.63,42.63,0,0,1-6.67-5.66,36.17,36.17,0,0,0,6.14,6.38,39.12,39.12,0,0,0,7.57,4.72,37.88,37.88,0,0,0,17.47,3.53,38.54,38.54,0,0,0,17.29-4.35,30.79,30.79,0,0,0,12.53-12.37A35,35,0,0,1,828.12,259.52Zm5.72-85A102.94,102.94,0,0,1,865.56,178a118.71,118.71,0,0,1,29.6,12.11,114.72,114.72,0,0,1,13.36,8.91,113.54,113.54,0,0,1,12.08,10.66,100.33,100.33,0,0,0-11.53-11.35,113.07,113.07,0,0,0-13.21-9.42A114.77,114.77,0,0,0,866,176.27a100.29,100.29,0,0,0-32.28-3.09,79.54,79.54,0,0,0-16,2.89,64.67,64.67,0,0,0-14.82,6.48A76,76,0,0,1,833.83,174.56Zm-30,1.66A59.65,59.65,0,0,1,832,167.42a93.2,93.2,0,0,1,29.47,2.92A121.92,121.92,0,0,1,889.24,181,120,120,0,0,1,902,188.74a117.57,117.57,0,0,1,11.81,9.2,105.82,105.82,0,0,0-23.92-18.14,116.65,116.65,0,0,0-28-11.21,90.7,90.7,0,0,0-30-2.54,64.83,64.83,0,0,0-14.77,3.17A50.43,50.43,0,0,0,803.84,176.22ZM855,240.94a18.68,18.68,0,0,0,3.87,4.79,38.57,38.57,0,0,0,4.89,3.81,58.72,58.72,0,0,0,11.09,5.53,70.57,70.57,0,0,0,24.35,4.33,66.93,66.93,0,0,0,24.28-4.71,68.34,68.34,0,0,0,11-5.69,69.51,69.51,0,0,0,9.69-7.61,76.92,76.92,0,0,1-21.19,12,68.65,68.65,0,0,1-23.79,4.21,72.56,72.56,0,0,1-23.88-3.84,58.33,58.33,0,0,1-11.09-5C860.71,246.76,857.32,244.33,855,240.94Zm48,10.62a56.87,56.87,0,0,0,17.4-4,49.55,49.55,0,0,0,7.92-4.13,40.78,40.78,0,0,0,6.81-5.69,50.66,50.66,0,0,1-15.23,8.53,65.42,65.42,0,0,1-17,3.46,74.65,74.65,0,0,1-17.41-.75,54,54,0,0,1-8.49-2.07A30.22,30.22,0,0,1,869,243.2c4.51,3.92,10.38,5.86,16.15,7.16A63.36,63.36,0,0,0,903,251.56Zm44.35-26.46a282.31,282.31,0,0,1,45.86-39.91c16.69-11.37,35-20.59,54.52-25.42a122.22,122.22,0,0,1,59.67-.24,28.26,28.26,0,0,0,8,.63,13,13,0,0,0,7.78-2.86,15,15,0,0,0,4.16-7.06,12.7,12.7,0,0,0-.47-8.1,12.09,12.09,0,0,0-2.21-3.44,8.7,8.7,0,0,0-3.39-2.35,8.55,8.55,0,0,0-7.84.89,7.72,7.72,0,0,0-1.5,1.33,5.61,5.61,0,0,0-1,1.79,5.7,5.7,0,0,0,.08,4,4.61,4.61,0,0,0,2.73,2.74,3.68,3.68,0,0,0,3.61-.85,3.54,3.54,0,0,1-3.52.6,4.21,4.21,0,0,1-2.31-2.67,5.06,5.06,0,0,1,.12-3.51,4.88,4.88,0,0,1,.93-1.46,6.94,6.94,0,0,1,1.41-1.12,7.4,7.4,0,0,1,6.8-.43,8.89,8.89,0,0,1,4.46,5.17c1.68,4.43-.17,9.71-3.58,12.7a10.86,10.86,0,0,1-6.39,2.05,25.63,25.63,0,0,1-7.16-.77,118.53,118.53,0,0,0-30.54-4.26,125,125,0,0,0-30.68,3.74c-20.06,5-38.68,14.63-55.26,26.64A235,235,0,0,0,947.32,225.1Zm86.23-54.44a189.05,189.05,0,0,0-42.47,24.07,194.47,194.47,0,0,0-18.62,15.76,127.5,127.5,0,0,0-16.09,18.23,145.18,145.18,0,0,1,17-17.22,228.65,228.65,0,0,1,19.09-14.83A212,212,0,0,1,1013,184a179.43,179.43,0,0,1,21.81-10.12c14.92-5.79,30.75-9.36,46.7-9.53a105.94,105.94,0,0,1,23.71,2.47,104.62,104.62,0,0,1,22.53,7.9l-.13-.07a35.39,35.39,0,0,0,8.44,3.64,24.08,24.08,0,0,0,9.2.91,16.15,16.15,0,0,0,8.61-3.61,14.12,14.12,0,0,0,4.82-8,12.18,12.18,0,0,0-1.78-9.06,8.58,8.58,0,0,0-8.17-3.85,8.12,8.12,0,0,0-4.24,1.8,5.68,5.68,0,0,0-2,4.14,5.13,5.13,0,0,0,1.79,4.08,3.66,3.66,0,0,0,4.22.13,3.49,3.49,0,0,1-4-.37,4.68,4.68,0,0,1-1.39-3.82,5,5,0,0,1,1.87-3.53,7.22,7.22,0,0,1,3.84-1.41,7.36,7.36,0,0,1,6.84,3.6,10.64,10.64,0,0,1,1.18,7.9c-1.23,5.38-6.42,9.22-11.84,9.61s-11.19-1.59-15.91-4.45l-.08,0,0,0a101.22,101.22,0,0,0-47.49-11.46C1065,160.83,1048.74,164.65,1033.55,170.66ZM793.27,81.54a40,40,0,0,1,14,4.69,39.18,39.18,0,0,1,11.31,9.5,48.57,48.57,0,0,1,7.42,13,41.3,41.3,0,0,0-2.44-7.24,40.29,40.29,0,0,0-3.88-6.66,35.74,35.74,0,0,0-11.53-10.23,36.31,36.31,0,0,0-14.75-4.48c-5.11-.38-10.5.19-14.92,2.82a22.89,22.89,0,0,1,7.32-1.66A32.94,32.94,0,0,1,793.27,81.54Zm59.53,65a26.45,26.45,0,0,1-5.2-9.53,21.06,21.06,0,0,0,4.09,10.38,28.41,28.41,0,0,0,8.23,7.78,24,24,0,0,0,10.77,3.58,22.31,22.31,0,0,0,11-2,28.68,28.68,0,0,1-10.85.57,26.24,26.24,0,0,1-10-3.72A32.58,32.58,0,0,1,852.8,146.52Zm186.79,97.58a281.83,281.83,0,0,0,28.16-7.7c-.12-.53-.25-1.07-.36-1.6-9.25,3.05-18.6,5.78-28.1,7.95a148.76,148.76,0,0,1-31.14,4,77.79,77.79,0,0,1-30.81-5.34c9.6,4.39,20.27,6.09,30.81,6.23A149,149,0,0,0,1039.59,244.1ZM1074.85,234c7.94-2.73,15.8-5.66,23.62-8.64a8.1,8.1,0,0,0-1.12-1.5c-7.5,2.92-15,5.77-22.64,8.42A14.5,14.5,0,0,0,1074.85,234Zm114-40.86a89.45,89.45,0,0,1,15.6-1.87,45.52,45.52,0,0,1,15.52,2.12,43.81,43.81,0,0,0-15.53-2.59,89.84,89.84,0,0,0-15.76,1.47,218.1,218.1,0,0,0-30.52,8.29c-14.28,4.87-28.26,10.48-42.25,16a14.09,14.09,0,0,1,.81,1.52c13.91-5.59,27.79-11.21,41.89-16.24A217.17,217.17,0,0,1,1188.82,193.17ZM1009,241.74c-9.63.68-19.65.27-28.64-3.67a44.67,44.67,0,0,0,14,4,82.43,82.43,0,0,0,14.66.51,170.54,170.54,0,0,0,29-4.4c9.68-2.25,19.21-5,28.65-8-.06-.56-.14-1.12-.19-1.68-9.5,3.11-19.08,6-28.78,8.37A171.44,171.44,0,0,1,1009,241.74Zm103.14-29.58c.45.42.89.86,1.31,1.32,11.75-4.46,23.49-9,35.28-13.29,9.15-3.35,18.35-6.57,27.71-9.24a139.78,139.78,0,0,1,14.19-3.41,49.08,49.08,0,0,1,14.52-.77,46.8,46.8,0,0,0-14.6.3,140.76,140.76,0,0,0-14.34,3c-9.45,2.51-18.72,5.59-27.94,8.79C1136.15,203.13,1124.15,207.67,1112.14,212.17Zm-36.34,13.17c-.19.64-.37,1.3-.52,2q9.32-3.15,18.58-6.47c-.54-.44-1.05-.9-1.53-1.36Q1084.1,222.48,1075.8,225.34Zm205.91,18.43c9.78,6.15,24.54,11.51,34.23,2.22,4.14-4,6.12-10.55,3.74-16-2.23-5.09-8.52-8-13.72-5.59-2.92,1.4-4.87,5.1-3.83,8.28,1.35,4.1,9.43,4.67,7.85-.26.46,4.2-5.52,3.21-6.19-.22-.51-2.18,1.22-4.64,3.23-5.44,4.91-2,9.66,2.48,10.08,7.15a12.47,12.47,0,0,1-6.64,11.74c-10.1,5.62-22.75-1-31.33-6.53-9.69-6.29-17.6-14.47-26.6-21.59C1261.67,226.95,1270.53,236.73,1281.72,243.76ZM929.82,218.19c-9.54-6.39-18.95-13.1-28.52-19.65-25.11-17.16-54.39-24.09-84.79-15.69-21.05,5.83-46.59,23.54-37.83,53.87.9-1.05,1.62-1.66,2.23-2.42-3.77-22.93,10.74-35.53,21.57-42.09,12.59-7.62,25.64-8.94,40.14-8.44,19.87.69,37,8.55,53.25,18.49-6.79-.69-13,1.46-16.81,8.28-4.34,7.76.41,20.38,10.62,18.87,3.38-.49,6.52-2.68,7.1-6.25a6,6,0,0,0-3.71-6.66,3.15,3.15,0,0,0-4.14,1.32,2.76,2.76,0,0,0,.81,4.05,3.16,3.16,0,0,0,4.4-.84,3.11,3.11,0,0,0,.54-1.67,4.68,4.68,0,0,1,.46,2.89c-.59,2.7-3.15,3.78-5.66,3.62-10.25-.75-7.87-14.13-1.09-17.85,5.26-2.93,11.79-1.68,17.45.63,3.51,2.34,7,4.72,10.46,7.1-6.39-1.27-12.53,0-14.75,6.46-1.79,5.18,2.46,12.32,8.49,10.3a4.89,4.89,0,0,0,3.63-4.56,3.73,3.73,0,0,0-3-3.64,1.94,1.94,0,0,0-2.37,1.25,1.7,1.7,0,0,0,.93,2.37,2,2,0,0,0,2.58-1,2,2,0,0,0,.14-1.07,2.88,2.88,0,0,1,.6,1.7,3.09,3.09,0,0,1-3,2.81c-6.3.66-6.31-7.72-2.6-10.72,3.89-3.18,10-2,14.34-.46l.15.05q2.77,1.89,5.55,3.75,2.14,1.43,4.34,2.84c-5.28-1.07-10.68-.08-11.87,5.26-.83,3.69,2.65,8.27,6.63,6.42a3.38,3.38,0,0,0,2.14-3.42,2.58,2.58,0,0,0-2.33-2.27,1.34,1.34,0,0,0-1.53,1,1.18,1.18,0,0,0,.82,1.56,1.35,1.35,0,0,0,1.7-.88,1.3,1.3,0,0,0,0-.74,2,2,0,0,1,.54,1.12,2.14,2.14,0,0,1-1.87,2.17c-4.28.94-4.93-4.81-2.62-7.16s6.74-2.13,9.81-1.43c.54.12,1.23.3,2,.54,23.77,15,50.76,27.81,78.5,28.45,28.93.67,63.27-11.3,91.56-23.17-.94-1.47-1.94-2.91-3-4.31-53.13,22-86.58,25.31-105.79,20.84-20.87-4.86-39.14-14.32-56.62-25.38-2.29-2.84-4.69-7-3.43-10.68s7.58-6,8.86-1a2.51,2.51,0,0,1-1.28,3.1,2.32,2.32,0,0,1-1.46,0,1.52,1.52,0,0,0,.77-.41,1.58,1.58,0,0,0,0-2.23,1.38,1.38,0,0,0-2.06,0,1.57,1.57,0,0,0-.28,2.14,3,3,0,0,0,3.59,1.24,4,4,0,0,0,2.44-4c-.16-5.14-6.77-6.35-10.19-3.54a7.66,7.66,0,0,0-3,6.59c-5.42-15.67-1.44-23.39.16-26.39,2.21-4.16,7.57-5.75,11.12-1.48.49.6,1.34.1,1.56-.63,2.41-8.15-8.78-20.52-22-14.18-1.81-9.66,13.58-24.44,22.9-16.56a.94.94,0,0,0,1.54-.63c2.11-14.19-13.58-15.4-19.84-10.36a35.8,35.8,0,0,1,15.48-9.72c14.7-4.44,32.37,5,31.36,21.6a21.51,21.51,0,0,1-8,15c-10,1.53-10.26-12.35-17.44-12.62-3.26-.12-7.59,3.75-6.9,7.08-.45,5.79,6.19,11,11.66,11.29,8.13.53,14.92-3.66,19.15-10.44,9.11-14.59-1.56-32.49-17.9-34.64-22.07-2.9-36.82,13.88-41.38,31.8S918.4,203.2,929.82,218.19ZM849.1,162.34c-5.74-9.66-21.73-20.82-26.25-10C817,166.34,841.56,156,849.1,162.34Zm15.16,45.22c-9.28-8.37-15.16-4.76-20.14-1.13,4.64-4.64,1.7-13.69-3.73-18.33-4.41,4.75-8.49,12.9-2.71,18.33-6.45-5.09-13.69-5-20.37,1.7,12.44-2.83,21.16,9.62,23.53,15C842.54,217.74,850.46,205.64,864.26,207.56Zm12.9-82a1.91,1.91,0,0,0,1.29-.52,1.82,1.82,0,0,0-2.57-2.57,1.84,1.84,0,0,0,0,2.57A1.91,1.91,0,0,0,877.16,125.52Zm14.57-18.58a1.79,1.79,0,0,0,1.47,2.08h.31a1.8,1.8,0,1,0-1.78-2.1Zm-12.44,4.54a1.81,1.81,0,0,0-2.15,2.91,1.86,1.86,0,0,0,1.09.37,1.75,1.75,0,0,0,1.45-.74A1.8,1.8,0,0,0,879.3,111.49Zm-3.2,8.51a1.85,1.85,0,1,0-.22,0A.93.93,0,0,0,876.09,120ZM886,107.54a1.84,1.84,0,0,0,1.79,1.5l.31,0a1.81,1.81,0,0,0-.62-3.56A1.82,1.82,0,0,0,886,107.54Zm12.89,3.32a1.82,1.82,0,1,0-.81-.2A1.63,1.63,0,0,0,898.92,110.86Zm-17.36-3.24a1.8,1.8,0,0,0,.91,3.36,1.67,1.67,0,0,0,.92-.25,1.78,1.78,0,0,0,.65-2.46A1.81,1.81,0,0,0,881.56,107.62Zm23.43,5.9a1.77,1.77,0,0,0,.54-1.26A1.82,1.82,0,0,0,905,111a1.87,1.87,0,0,0-2.55,0,1.79,1.79,0,0,0-.53,1.29,1.74,1.74,0,0,0,.53,1.26,1.8,1.8,0,0,0,1.28.54A1.77,1.77,0,0,0,905,113.52Zm39.68,24.61a1.86,1.86,0,0,0-.52,1.28,1.82,1.82,0,0,0,1.81,1.81,1.84,1.84,0,0,0,1.29-.54,1.75,1.75,0,0,0,.52-1.27,1.82,1.82,0,0,0-.52-1.28A1.89,1.89,0,0,0,944.67,138.13Zm11,3.15a2.26,2.26,0,0,0,.49.06,1.78,1.78,0,1,0-.49-.06Zm11.88,5.36a1.81,1.81,0,0,0-.51,2.52,1.78,1.78,0,0,0,1.5.79,1.75,1.75,0,0,0,1-.3,1.79,1.79,0,0,0,.49-2.5h0A1.81,1.81,0,0,0,967.5,146.63Zm-6.62-3.4A1.81,1.81,0,1,0,960,143,1.85,1.85,0,0,0,960.88,143.23ZM951,140.57a1.81,1.81,0,1,0-1.79-1.85,1.79,1.79,0,0,0,1.75,1.85Zm22.18,17.27a1.79,1.79,0,0,0-1.79-1.81,1.8,1.8,0,1,0,1.79,1.81Zm-9.47-14.72a1.83,1.83,0,0,0,.18,2.55,1.85,1.85,0,0,0,1.2.44,1.76,1.76,0,0,0,1.36-.62,1.81,1.81,0,0,0-.16-2.55A1.84,1.84,0,0,0,963.74,143.12Zm6.43,7.91a1.81,1.81,0,0,0,.52,3.55,2.56,2.56,0,0,0,.51-.07,1.81,1.81,0,1,0-1-3.48Zm-.74,10.63a1.83,1.83,0,0,0,0,2.57,1.9,1.9,0,0,0,1.29.53,1.84,1.84,0,0,0,1.28-.55,1.82,1.82,0,0,0,.53-1.26,1.81,1.81,0,0,0-3.1-1.29ZM734.82,62.83a1.82,1.82,0,0,0,.53-1.26,1.86,1.86,0,0,0-.53-1.28,1.89,1.89,0,0,0-2.57,0,1.78,1.78,0,0,0-.52,1.28,1.84,1.84,0,0,0,.52,1.26,1.8,1.8,0,0,0,1.29.54A1.84,1.84,0,0,0,734.82,62.83Zm9.49-.63a1.78,1.78,0,1,0-.38,0A3.69,3.69,0,0,0,744.31,62.19Zm14.77,10.93a1.8,1.8,0,0,0-1.47,2.1,1.82,1.82,0,0,0,1.79,1.48,2.08,2.08,0,0,0,.32,0,1.81,1.81,0,0,0-.65-3.57Zm2.12,7.59a1.81,1.81,0,1,0-2.08,1.49,1.68,1.68,0,0,0,.29,0A1.81,1.81,0,0,0,761.2,80.71Zm-8.51-16.49a1.8,1.8,0,0,0,.11,2.55,1.77,1.77,0,0,0,2.55-.11,1.81,1.81,0,0,0-.09-2.55A1.83,1.83,0,0,0,752.69,64.22Zm3.89,3.95a1.81,1.81,0,0,0-.65,2.48h0a1.84,1.84,0,0,0,1.57.91,1.7,1.7,0,0,0,.91-.25,1.8,1.8,0,0,0,.67-2.46A1.82,1.82,0,0,0,756.59,68.17Zm-7.91-4.29a1.72,1.72,0,0,0,.83.2,1.8,1.8,0,0,0,.83-3.41,1.78,1.78,0,0,0-2.43.76A1.8,1.8,0,0,0,748.67,63.87ZM739,61.81a1.8,1.8,0,0,0,1.63-2,1.81,1.81,0,1,0-1.79,2A.52.52,0,0,0,739,61.81Zm17.4,22.6a1.81,1.81,0,0,0,1.28,3.09A1.93,1.93,0,0,0,759,87a1.82,1.82,0,0,0-2.57-2.57ZM790.79,238a1.81,1.81,0,0,0-.52,1.27,1.89,1.89,0,0,0,.52,1.28,1.84,1.84,0,0,0,2.57,0,1.87,1.87,0,0,0,.53-1.28,1.83,1.83,0,0,0-.53-1.27A1.88,1.88,0,0,0,790.79,238Zm13.76,11.48a1.81,1.81,0,1,0-1.75-2.26,1.8,1.8,0,0,0,1.3,2.21A1.78,1.78,0,0,0,804.54,249.48Zm5.05.76a1.77,1.77,0,1,0-.09,0Zm-9.85-2.55a1.78,1.78,0,1,0-.82-.18A1.9,1.9,0,0,0,799.75,247.69Zm26.74-8a1.8,1.8,0,0,0,.22,2.56,1.77,1.77,0,0,0,2.54-.22,1.81,1.81,0,1,0-2.75-2.34Zm-6.86,8.89a1.64,1.64,0,0,0,.67-.13,1.81,1.81,0,1,0-.67.13ZM815,249.92a1.8,1.8,0,1,0-2.08-1.48A1.82,1.82,0,0,0,814.7,250,1.23,1.23,0,0,0,815,249.92Zm-20.88-8a1.81,1.81,0,0,0,1.38,3,1.83,1.83,0,0,0,1.37-.63,1.8,1.8,0,0,0-.19-2.55v0A1.82,1.82,0,0,0,794.12,241.9Zm30,4.24a1.81,1.81,0,1,0-1.49-.76A1.87,1.87,0,0,0,824.12,246.14Zm6.57-7.77a1.78,1.78,0,0,0,1.81-1.81,1.74,1.74,0,0,0-.52-1.27,1.87,1.87,0,0,0-2.56,0,1.84,1.84,0,0,0-.54,1.29,1.81,1.81,0,0,0,1.81,1.81Zm329.14-24.51a1.81,1.81,0,0,0,1.27,3.09,1.87,1.87,0,0,0,1.28-.53,1.83,1.83,0,0,0,0-2.57A1.87,1.87,0,0,0,1159.83,213.86Zm27.84-8.24a1.8,1.8,0,0,0-1.5,2.08,1.83,1.83,0,0,0,1.8,1.52,2,2,0,0,0,.29,0,1.84,1.84,0,0,0,1.5-2.09A1.82,1.82,0,0,0,1187.67,205.62Zm-11.11,2.51a1.81,1.81,0,0,0,.49,3.55,1.5,1.5,0,0,0,.49-.08,1.8,1.8,0,0,0-1-3.47Zm55.09,10.11a1.79,1.79,0,0,0-.27-2.54,1.81,1.81,0,0,0-2.28,2.81,1.84,1.84,0,0,0,1.14.39A1.77,1.77,0,0,0,1231.65,218.24Zm-65.86-6.64a1.82,1.82,0,0,0,.6,3.53,1.77,1.77,0,0,0,.6-.11,1.81,1.81,0,0,0,1.12-2.3A1.84,1.84,0,0,0,1165.78,211.59Zm5.34-1.81a1.81,1.81,0,0,0,.56,3.53,1.51,1.51,0,0,0,.56-.09,1.81,1.81,0,0,0-1.12-3.44Zm38.72-.45a1.29,1.29,0,0,0,.36,0,1.79,1.79,0,1,0-.36,0Zm-5.16-.8a1.82,1.82,0,1,0-1.79-2,1.78,1.78,0,0,0,1.61,2A.73.73,0,0,0,1204.69,208.53Zm-11,0a1.82,1.82,0,1,0-2-1.65,1.79,1.79,0,0,0,1.79,1.65Zm22,2.32a1.81,1.81,0,1,0-1.72-2.39,1.79,1.79,0,0,0,1.14,2.3A1.66,1.66,0,0,0,1215.63,210.83Zm-14.72-4.38a1.81,1.81,0,1,0-1.79,1.81A1.81,1.81,0,0,0,1200.91,206.45Zm-18.85.27a1.81,1.81,0,0,0,.4,3.57,4.17,4.17,0,0,0,.42,0,1.82,1.82,0,0,0,1.35-2.18A1.79,1.79,0,0,0,1182.06,206.72Zm43.63,8.92a1.83,1.83,0,0,0,1.54-.85,1.81,1.81,0,1,0-2.5.56A1.71,1.71,0,0,0,1225.69,215.65Zm-4.89-2.71a1.83,1.83,0,1,0-.77-.19A1.63,1.63,0,0,0,1220.8,212.93Zm14.91,9.21a1.8,1.8,0,0,0,.54-1.27,1.83,1.83,0,0,0-.54-1.28,1.87,1.87,0,0,0-2.56,0,1.79,1.79,0,0,0-.55,1.28,1.86,1.86,0,0,0,1.81,1.81A1.79,1.79,0,0,0,1235.71,222.15ZM955.84,245.54a1.83,1.83,0,0,0-.53,1.29,1.81,1.81,0,0,0,.53,1.28,1.87,1.87,0,0,0,1.28.53,1.83,1.83,0,0,0,1.81-1.81,1.86,1.86,0,0,0-.54-1.29A1.88,1.88,0,0,0,955.84,245.54ZM1065,252.74a1.83,1.83,0,0,0-1,2.37,1.81,1.81,0,0,0,1.68,1.12,1.87,1.87,0,0,0,.68-.12,1.82,1.82,0,1,0-1.37-3.37ZM962.56,248a1.78,1.78,0,0,0-2.45.72,1.83,1.83,0,0,0,.72,2.46,1.89,1.89,0,0,0,.87.22,1.81,1.81,0,0,0,.85-3.41Zm92.51,8.17a1.81,1.81,0,0,0-1.25,2.23,1.84,1.84,0,0,0,1.76,1.32,1.43,1.43,0,0,0,.49-.07,1.8,1.8,0,0,0,1.25-2.22A1.82,1.82,0,0,0,1055.07,256.15Zm5-1.56a1.8,1.8,0,0,0,.58,3.51,1.75,1.75,0,0,0,.6-.09,1.81,1.81,0,0,0-1.18-3.42Zm-10.1,2.86a1.8,1.8,0,0,0,.4,3.56,2.94,2.94,0,0,0,.41,0,1.81,1.81,0,1,0-.82-3.53ZM977,254v0a1.82,1.82,0,0,0-1.1,3.46,1.78,1.78,0,0,0,.56.09A1.81,1.81,0,0,0,977,254Zm15.32,3.9a1.8,1.8,0,1,0-.34,3.58,1.81,1.81,0,0,0,.34-3.58Zm-20.26-5.65a1.8,1.8,0,0,0-2.33,1,1.82,1.82,0,0,0,1,2.34,2.11,2.11,0,0,0,.65.12,1.81,1.81,0,0,0,.65-3.51Zm15.1,4.55A1.82,1.82,0,0,0,985,258.2a1.8,1.8,0,0,0,1.36,2.17,1.63,1.63,0,0,0,.42.05,1.81,1.81,0,0,0,.4-3.58Zm-5.11-1.29a1.81,1.81,0,0,0-1,3.5,2.22,2.22,0,0,0,.47.05,1.81,1.81,0,0,0,.49-3.55Zm-14.83-5.26a1.82,1.82,0,0,0-2.41.91,1.8,1.8,0,0,0,.9,2.39,1.81,1.81,0,0,0,2.41-.9A1.82,1.82,0,0,0,967.25,250.28Zm77.58,8.24v0a1.82,1.82,0,0,0,.33,3.6,2.48,2.48,0,0,0,.32,0,1.82,1.82,0,0,0,1.46-2.1A1.79,1.79,0,0,0,1044.83,258.52Zm-31.52,1.92a1.82,1.82,0,0,0-1.9,1.72,1.79,1.79,0,0,0,1.72,1.88h.09a1.82,1.82,0,0,0,1.81-1.73A1.79,1.79,0,0,0,1013.31,260.44Zm-5.27-.36a1.83,1.83,0,0,0-2,1.67,1.8,1.8,0,0,0,1.65,2h.15a1.81,1.81,0,0,0,.16-3.62Zm-5.25-.52a1.81,1.81,0,1,0-.43,3.6h.22a1.81,1.81,0,0,0,.21-3.6Zm-5.23-.71a1.81,1.81,0,0,0-.56,3.57,1.29,1.29,0,0,0,.27,0,1.8,1.8,0,0,0,.29-3.59Zm21,1.76a1.81,1.81,0,1,0,0,3.62h0a1.81,1.81,0,0,0,0-3.62Zm5.29,0a1.81,1.81,0,0,0,0,3.62h0a1.83,1.83,0,0,0,1.78-1.85A1.81,1.81,0,0,0,1023.86,260.58Zm15.77-1.25a1.82,1.82,0,0,0,.25,3.62l.23,0a1.82,1.82,0,1,0-.49-3.6Zm-5.23.63a1.81,1.81,0,0,0,.16,3.6.52.52,0,0,0,.18,0,1.8,1.8,0,1,0-.34-3.58Zm-5.27.4a1.81,1.81,0,0,0,.11,3.62h.11a1.81,1.81,0,1,0-.22-3.62ZM1069.3,251a1.81,1.81,0,0,0,1.27,3.09,1.85,1.85,0,0,0,1.28-.52,1.83,1.83,0,0,0,0-2.57A1.87,1.87,0,0,0,1069.3,251Zm-282.5-9.31c11.1-13.81,15.53-30.3,14-47.65-2.71,2.41-5.13,3.47-7.39,6,.48,8.61-2,16.32-5.7,24.32a58.26,58.26,0,0,1-12.89,18A34.86,34.86,0,0,1,762,248.33c-5.32,1.21-12.29-.54-12.56-7-.2-5,5.27-8.45,9.6-8.3a.91.91,0,0,0,.34-1.74.77.77,0,0,0-.16-.27c-25.53-10.45-28.47,15.12-22.81,21.42-6.57-2.22-9.28-11-9.05-17.16.44-11.78-13.35-8.83-13.12-19.46A12.3,12.3,0,0,1,726,203.59c4.53,0,7.42,6,12.22,6.57A7.89,7.89,0,0,0,747,202c-.67-12.22-19.08-10.37-27.59-5.67-7.55,3.39-13.26,10.72-15.69,19.11.05-11.31,4.54-21.35,17.11-25.95-1.58-10.33-18.81-3.3-19.43,6-4.27-11.37,7.62-30.1,19.05-23.5,0,0,2.69.34,1.91-2.71-1.22-6.77-9.51-8.18-15.51-6.06-23.13,8.18-23.73,67.32,8.32,88.7C739,267.81,769.9,262.68,786.8,241.67ZM696,72.51a49.56,49.56,0,0,1,7-12.37,56.91,56.91,0,0,1,10.31-10.05,44.7,44.7,0,0,0-6.08,4.06,46.77,46.77,0,0,0-5.3,5.1,42.54,42.54,0,0,0-7.64,12.6,48.72,48.72,0,0,0-3.2,14.37,47.29,47.29,0,0,0,1.09,14.57,56.16,56.16,0,0,1-.24-7.24,60.29,60.29,0,0,1,.52-7.18A58.8,58.8,0,0,1,696,72.51Z"/></g></g></svg>