<svg xmlns="http://www.w3.org/2000/svg" viewBox="0 0 201.46 200.14" fill="#fff"><title>Asset 3</title><g id="Layer_2" data-name="Layer 2"><g id="Layer_1-2" data-name="Layer 1"><path d="M16.62,79.15C16.27,84,19,91.29,24.3,92.46,29,93.5,33,90,33.63,85.53c.54-3.65-1-8.27-5-9.18-4.66-1.06-9.33,4.5-6.93,8.89,1.06,1.95,3.86,2.95,5.53,1.18a2.73,2.73,0,0,0-1-4.61.94.94,0,0,0-.72,1.71,1,1,0,0,1-.16,1.83c-1,.39-2.19-1.62-2.22-2.44a5.58,5.58,0,0,1,1.38-3.58,4,4,0,0,1,4.86-.75C32,80,32.46,83.92,31.74,86.52c-1.05,3.77-5.32,6-8.9,3.86-3.9-2.35-4.39-7.44-5.92-11.27a.15.15,0,0,0-.29,0Z"/><path d="M28.16,97.34c-1.61,2.66,2.93,4.45,4,1.52a5.71,5.71,0,0,0-1.66-6c-1.76-1.36-4.21-.91-6.08-2-1-.59-1.83.9-.89,1.53C26,94,29.73,92.76,30.82,96c.31.93.76,3.07-.71,3.3-1.12.18-1.46-1-1.43-1.86a.28.28,0,0,0-.51-.14Z"/><path d="M36.28,79.54a8.17,8.17,0,0,1,.52,3A2.17,2.17,0,0,1,35.89,84a1.44,1.44,0,0,1-1.38.24,1.16,1.16,0,0,1-.42-.36,3.6,3.6,0,0,1-.35-1.1.82.82,0,0,0-1.61.22,2.89,2.89,0,0,0,4.5,2.46,3.49,3.49,0,0,0,1.56-2.67,3.89,3.89,0,0,0-1.73-3.4.13.13,0,0,0-.18.14Z"/><path d="M21.76,60c-6.13-.24-3.7,13.82,4.65,10.3,7.2-3,.88-14.13-4-16.31-8.2-3.68-12.11,6.64-12.51,12.8C9,80.78,18,91.55,22.69,104.06a71.73,71.73,0,0,1,4.43,28.64,27.16,27.16,0,0,1-5.06,14.86c-3.26,4.44-7.51,6.74-12,9.71-.65.43,0,1.49.61,1.05,4.7-3.13,9-5.47,12.41-10.14a28.93,28.93,0,0,0,5.27-16.31c.58-13.44-3.24-26.58-9.31-38.41C14,83.57,8,71.75,12.29,60.39c2.58-6.85,9.64-7.74,13.9-1.81,1.36,1.89,2.64,4.44,2.57,6.85A4.64,4.64,0,0,1,24.4,70c-5.26.38-8.43-9.28-2.65-9.79a.14.14,0,0,0,0-.28Z"/><path d="M24.76,100.34c4.87,6.21,3.41,15.29,4.44,22.7.41,3,1.51,9.39,5.91,8.59,3-.55,5.55-5.34,2.87-7.68-2.29-2-4.11.44-3.45,2.77a.21.21,0,0,0,.41-.11q6.91,3.94-3.57,2.15a11.23,11.23,0,0,1-1-2.72,30.81,30.81,0,0,1-.8-4.94c-.31-2.72-.46-5.45-.67-8.18-.34-4.55-.86-9.16-4.13-12.6,0,0,0,0,0,0Z"/><path d="M25.31,152.28c-.15,4.76-3.84,8.59-3.68,13.34.09,2.68,1.61,6.14,4.82,5.76,2.48-.29,3.92-3.12,3.23-5.38-.56-1.85-2.78-3.82-3.86-1.28-.18.42.41.8.63.37q2.33-.64,2.58,1.44a3.7,3.7,0,0,1-1.67,3.76,3.24,3.24,0,0,1-4.22-1.49c-1.33-2.3-.79-5.16,0-7.5,1.06-3,2.73-5.75,2.27-9,0-.08-.13-.05-.13,0Z"/><path d="M10.85,55.73C5.22,58,5,64.67,5.6,69.88a56.56,56.56,0,0,0,2,9.26A70.67,70.67,0,0,1,10,88.2a12.85,12.85,0,0,1,0,5.38l-.8,2Q1.58,90.4,7.45,93.14c.13.54,1,.31.83-.23-.74-3.06-3.95-2.6-4.79.31s2.36,6.64,5.18,4.47c5.38-4.14,1.1-13.94-.35-18.75C6.22,72,3,60.22,10.94,55.95c.12-.06,0-.27-.09-.22Z"/><path d="M29.61,132.71a39.39,39.39,0,0,1-6.49,17.61c-5.29,8.36-9.69,14.95-10.42,27.22-.44,7.38,4.38,15.83.45,22.6,5.14-3,3.78-12.46,2.42-17.44,1.51-.18,3.62,2.85,3.62,6.76,2.1-6.76-1.06-11.56-1.36-15.66A25.62,25.62,0,0,1,20.09,161c1.66-3.74,3-7.42,4.83-11C31.71,136.44,29.61,132.71,29.61,132.71Z"/><path d="M15.41,93.56a42,42,0,0,0,2.11,6.4,49.74,49.74,0,0,1,4.08,13.34,16.06,16.06,0,0,1-.91,10.32c-2.11,4.27-5.89,4.8-8.91,7.29-1.81,1.6-4.53,4.63-4.83,7.3.45-4.45,1.81-9.43,5.44-11.74-1.51-2-3.62-5.34-2.42-8.18,1.21-3,5.59-3.2,6.34.18C13,115.63,11,121.67,15,122.56c3.47.89,4.53-3.38,4.68-6.58C19.94,109.93,16.54,102.9,15.41,93.56Z"/><path d="M27.15,137.6c-1.21,4.27-5,8.1-7.88,11.12a10.28,10.28,0,0,1-6.72,3.65c-1.74.27-4.68.45-5.44-2-.83-2.58,2-6,3.78-3.47a5.38,5.38,0,0,0-9.67-.8c-2.57,4.09.23,8.63,3.55,10.32-3.62.8-5.66,6.23-4.38,10.23,1.28,4.18,6.57,4.34,9.59.8-4.61.62-4.61-5.6-.91-7.83,3.32-2,7.48-3.58,10.12-6.6,1.89-2.22,3.17-4.43,4.83-6.56Z"/><path d="M46.54,18.27c-.89,2.31,2.31,3.38,4.09,2.13,4.09-3-1.78-8.54-5.34-8-8.72,1.25-11,12.45-7.65,19,1.42,3,8.36,7.65,7.83,1.25-.36-4.27-4.09-7.12-3.91-11.57.18-3.74,2.49-8,6.76-6.58,4.63,1.42,1.78,8.18-1.78,5l-.18-.18Z"/><path d="M39.06.83c2.49,1.42.18,4.09,1.6,5.34,1.25.89,3.74-.89,5.52.18,5.34,3.56-3.74,3.36-6.94,6.23C37.44,14.19,35.86,18.09,35,19,35,19,33-2.73,39.06.83Z"/><path d="M30.52,18.62C28.21,16.13,15.93,4,18.78,1.54c3.91-3.2,7.83,3.92,9.61,2.67,1.07-.53,1.6-5,3.92-4.09,1.6.53,1.07,3.74.89,5C33,7.41,30.52,18.62,30.52,18.62Z"/><path d="M36,34.1c-2.49-3.2.36-10.85-3-13.17-3.91-2.49-3.56,5-2.67,6.94a12.75,12.75,0,0,0,4.8,5.34Z"/><path d="M18.67,45.43c2.31-.89,3.38,2.31,2.14,4.09-3,4.09-8.54-1.78-8-5.34,1.25-8.72,12.46-11,19-7.65,3,1.42,7.65,8.36,1.25,7.83C28.81,44,26,40.27,21.52,40.45c-3.74.18-8,2.49-6.58,6.76,1.42,4.63,8.19,1.78,5-1.78l-.18-.18Z"/><path d="M1.24,38c1.42,2.49,4.09.18,5.34,1.6.89,1.25-.89,3.74.18,5.52,3.56,5.34,3.36-3.74,6.23-6.94,1.61-1.8,5.52-3.38,6.41-4.27C19.38,33.87-2.32,31.91,1.24,38Z"/><path d="M19,29.42C16.54,27.11,4.44,14.83,1.95,17.68c-3.2,3.91,3.92,7.83,2.67,9.61-.53,1.07-5,1.6-4.09,3.92.53,1.6,3.74,1.07,5,.89C7.82,31.91,19,29.42,19,29.42Z"/><path d="M34.51,34.93c-3.2-2.49-10.85.36-13.17-3-2.49-3.91,5-3.56,6.94-2.67A12.75,12.75,0,0,1,33.62,34Z"/><path d="M26.43,25.38C27,15.6,19.31,8.84,9.35,9c0,3.91,2.49,8.54,5.34,11.39,3.2,3,6.58,3.2,10,4.27Z"/><path d="M36.4,36.59c3.38.89,2.31,7.65.36,9.43h0c3,0,3.2-.71,3.74-2.49a11.57,11.57,0,0,0,6,3.74c0-2.13-1.25-3.91-2.67-5.52,2.14.36,3-1.42,3-3.2C43,40,40.31,39.62,38.18,37.48Z"/><path d="M80.43,17.59c3.77,1.51,8.64,2,11.12,5.66s.19,8.08-3.7,9.16c-2.56.71-6.28.25-7.83-2.18a4,4,0,0,1,.42-4.82,5.41,5.41,0,0,1,3.28-1.54c1.22-.09,1.83.06,2.41,1.2q1.12.85.12,1.33-.62.89-1.4-.22a.94.94,0,0,0-1.71.72c1.18,4.13,7.67.62,4.78-3.32-3.09-4.21-10.17-.43-10.38,4.08-.42,9.44,15.7,8.5,16.39-.53.5-6.59-7.88-10.25-13.45-9.85a.15.15,0,0,0,0,.29Z"/><path d="M98.8,29.35c.85,0,2,.26,1.87,1.34-.12,1.56-2.39,1.11-3.31.8-3.27-1.08-2.07-4.86-3.66-7.24-.63-.94-2.12-.09-1.53.89,1.13,1.87.68,4.32,2,6.08a5.72,5.72,0,0,0,6,1.66c2.93-1.11,1.14-5.66-1.52-4a.28.28,0,0,0,.14.51Z"/><path d="M80.72,37.14a3.92,3.92,0,0,0,3.34,1.73,3.47,3.47,0,0,0,2.73-1.57,2.89,2.89,0,0,0-2.46-4.5.82.82,0,0,0-.22,1.61,4,4,0,0,1,1.05.32,1.26,1.26,0,0,1,.39.41,1.41,1.41,0,0,1-.22,1.42,2.17,2.17,0,0,1-1.49.91c-1.09.18-2-.32-3-.52a.13.13,0,0,0-.14.18Z"/><path d="M61.58,22.43c.5-5.76,9.2-2.56,9.66,1.69a4.45,4.45,0,0,1-4.49,5.31c-2.4.12-5-1.21-6.85-2.57-5.9-4.24-5-11.34,1.81-13.9,11.39-4.25,23.15,1.71,33.06,6.79,11.84,6.07,25,9.87,38.41,9.31a28.87,28.87,0,0,0,16.31-5.27c4.67-3.41,7-7.7,10.14-12.41.44-.65-.62-1.26-1.05-.61-5,7.45-9.62,14.19-19,16.3-9,2-19,.37-27.83-1.73C98,22.07,86.76,11.44,72.37,10.6c-6.57-.38-18.79,1.25-17.65,10.54.69,5.61,11.16,12.51,15.88,7.55,2.37-2.48,1.63-6.9-1-8.84-2.36-1.73-8.42-1.23-8.28,2.58a.14.14,0,0,0,.28,0Z"/><path d="M101.64,25.46c3.43,3.26,8.06,3.79,12.6,4.13,2.53.19,5,.33,7.57.61a36.74,36.74,0,0,1,4.94.71,13.65,13.65,0,0,1,3.33,1.15q1.79,10.48-2.15,3.57a.21.21,0,0,0,.11-.41c-2.32-.67-4.77,1.16-2.77,3.45,2.34,2.68,7.13.15,7.68-2.87.8-4.4-5.62-5.5-8.59-5.91-7.42-1-16.49.42-22.7-4.44,0,0,0,0,0,0Z"/><path d="M153.58,26.12c3.3.46,6-1.2,9-2.27,2.36-.83,5.17-1.38,7.5,0A3.24,3.24,0,0,1,171.62,28a3.7,3.7,0,0,1-3.76,1.67q-2.08-.25-1.44-2.58c.43-.22.05-.81-.37-.63-2.35,1-.84,3.05.95,3.75,2.32.91,5.4-.51,5.71-3.13.36-3-2.76-4.58-5.33-4.78-4.92-.38-8.88,3.49-13.77,3.65-.07,0-.1.12,0,.13Z"/><path d="M57.27,11.62C61.41,3.9,72.71,6.77,79.48,8.74c4.94,1.44,15.22,6.18,19.53.59,2.07-2.68-1.14-5.68-4-5.24-3.05.46-4.14,4-.76,4.86.54.13.77-.7.23-.83q-2.25-4.62.74-.31,3.26,2,.69,2.47c-1.1,1-3.31.7-4.7.62-3.39-.19-6.72-1.45-10-2.41a59.57,59.57,0,0,0-10-2.22C66,5.67,59.3,5.89,57,11.53c-.05.13.16.21.22.09Z"/><path d="M134,30.29a39.39,39.39,0,0,0,17.61-6.49c8.36-5.29,14.95-9.69,27.22-10.42,7.38-.44,15.83,4.38,22.6.45C198.44,19,189,17.6,184,16.24c-.18,1.51,2.85,3.62,6.76,3.62-6.76,2.1-11.56-1.06-15.66-1.36a25.62,25.62,0,0,0-12.81,2.27c-3.74,1.66-7.42,3-11,4.83C137.77,32.39,134,30.29,134,30.29Z"/><path d="M94.89,16.09a42,42,0,0,1,6.4,2.11,49.74,49.74,0,0,0,13.34,4.08A16.06,16.06,0,0,0,125,21.38c4.27-2.11,4.8-5.89,7.29-8.91,1.6-1.81,4.63-4.53,7.3-4.83-4.45.45-9.43,1.81-11.74,5.44-2-1.51-5.34-3.62-8.18-2.42-3,1.21-3.2,5.59.18,6.34-2.85-3.32,3.2-5.29,4.09-1.36.89,3.47-3.38,4.53-6.58,4.68C111.25,20.62,104.23,17.22,94.89,16.09Z"/><path d="M138.92,27.82c4.27-1.21,8.1-5,11.12-7.88a10.28,10.28,0,0,0,3.65-6.72c.27-1.74.45-4.68-2-5.44-2.58-.83-6,2-3.47,3.78a5.38,5.38,0,0,1-.8-9.67c4.09-2.57,8.63.23,10.32,3.55C158.58,1.82,164-.22,168,1.06c4.18,1.28,4.34,6.57.8,9.59C169.44,6,163.21,6,161,9.75c-2,3.32-3.58,7.48-6.6,10.12-2.22,1.89-4.43,3.17-6.56,4.83Z"/></g></g></svg>