<svg xmlns="http://www.w3.org/2000/svg" viewBox="0 0 201.46 200.14" fill="#fff"><title>Asset 4</title><g id="Layer_2" data-name="Layer 2"><g id="Layer_1-2" data-name="Layer 1"><path d="M184.55,79.11c-1.51,3.77-2,8.64-5.66,11.12s-8.08.19-9.16-3.7c-.71-2.56-.25-6.28,2.18-7.83a4,4,0,0,1,4.82.42,5.41,5.41,0,0,1,1.54,3.28c.09,1.22-.06,1.83-1.2,2.41q-.85,1.12-1.33.12-.89-.62.22-1.4a.94.94,0,0,0-.72-1.71c-4.13,1.18-.62,7.67,3.32,4.78,4.21-3.09.43-10.17-4.08-10.38-9.44-.42-8.5,15.7.53,16.39,6.59.5,10.25-7.88,9.85-13.45a.15.15,0,0,0-.29,0Z"/><path d="M172.79,97.48c0,.85-.26,2-1.34,1.87-1.56-.12-1.11-2.39-.8-3.31,1.08-3.27,4.86-2.07,7.24-3.66.94-.63.09-2.12-.89-1.53-1.87,1.13-4.32.68-6.08,2a5.72,5.72,0,0,0-1.66,6c1.11,2.93,5.66,1.14,4-1.52a.28.28,0,0,0-.51.14Z"/><path d="M165,79.4a3.92,3.92,0,0,0-1.73,3.34,3.47,3.47,0,0,0,1.57,2.73,2.89,2.89,0,0,0,4.5-2.46.82.82,0,0,0-1.61-.22,4,4,0,0,1-.32,1.05,1.26,1.26,0,0,1-.41.39,1.41,1.41,0,0,1-1.42-.22,2.17,2.17,0,0,1-.91-1.49c-.18-1.09.32-2,.52-3a.13.13,0,0,0-.18-.14Z"/><path d="M179.71,60.25c5.76.5,2.56,9.2-1.69,9.66a4.45,4.45,0,0,1-5.31-4.49c-.12-2.4,1.21-5,2.57-6.85,4.24-5.9,11.34-5,13.9,1.81,4.25,11.39-1.71,23.15-6.79,33.06-6.07,11.84-9.87,25-9.31,38.41a28.87,28.87,0,0,0,5.27,16.31c3.41,4.67,7.7,7,12.41,10.14.65.44,1.26-.62.61-1.05-7.45-5-14.19-9.62-16.3-19-2-9-.37-19,1.73-27.83,3.26-13.74,13.89-25,14.73-39.4.38-6.57-1.25-18.79-10.54-17.65-5.61.69-12.51,11.16-7.55,15.88,2.48,2.37,6.9,1.63,8.84-1,1.73-2.36,1.23-8.42-2.58-8.28a.14.14,0,0,0,0,.28Z"/><path d="M176.68,100.31c-3.26,3.43-3.79,8.06-4.13,12.6-.19,2.53-.33,5-.61,7.57a36.74,36.74,0,0,1-.71,4.94,13.65,13.65,0,0,1-1.15,3.33q-10.48,1.79-3.57-2.15a.21.21,0,0,0,.41.11c.67-2.32-1.16-4.77-3.45-2.77-2.68,2.34-.15,7.13,2.87,7.68,4.4.8,5.5-5.62,5.91-8.59,1-7.42-.42-16.49,4.44-22.7,0,0,0,0,0,0Z"/><path d="M176,152.26c-.46,3.3,1.2,6,2.27,9,.83,2.36,1.38,5.17,0,7.5a3.24,3.24,0,0,1-4.22,1.49,3.7,3.7,0,0,1-1.67-3.76q.25-2.08,2.58-1.44c.22.43.81.05.63-.37-1-2.35-3.05-.84-3.75.95-.91,2.32.51,5.4,3.13,5.71,3,.36,4.58-2.76,4.78-5.33.38-4.92-3.49-8.88-3.65-13.77,0-.07-.12-.1-.13,0Z"/><path d="M190.52,55.95c7.72,4.15,4.85,15.44,2.88,22.22-1.44,4.94-6.18,15.22-.59,19.53,2.68,2.07,5.68-1.14,5.24-4-.46-3.05-4-4.14-4.86-.76-.13.54.7.77.83.23q4.62-2.25.31.74-2,3.26-2.47.69c-1-1.1-.7-3.31-.62-4.7.19-3.39,1.45-6.72,2.41-10a59.57,59.57,0,0,0,2.22-10c.61-5.22.38-11.91-5.25-14.16-.13-.05-.21.16-.09.22Z"/><path d="M171.85,132.71a39.39,39.39,0,0,0,6.49,17.61c5.29,8.36,9.69,14.95,10.42,27.22.44,7.38-4.38,15.83-.45,22.6-5.14-3-3.78-12.46-2.42-17.44-1.51-.18-3.62,2.85-3.62,6.76-2.1-6.76,1.06-11.56,1.36-15.66A25.62,25.62,0,0,0,181.37,161c-1.66-3.74-3-7.42-4.83-11C169.75,136.44,171.85,132.71,171.85,132.71Z"/><path d="M186.05,93.56a42,42,0,0,1-2.11,6.4,49.74,49.74,0,0,0-4.08,13.34,16.06,16.06,0,0,0,.91,10.32c2.11,4.27,5.89,4.8,8.91,7.29,1.81,1.6,4.53,4.63,4.83,7.3-.45-4.45-1.81-9.43-5.44-11.74,1.51-2,3.62-5.34,2.42-8.18-1.21-3-5.59-3.2-6.34.18,3.32-2.85,5.29,3.2,1.36,4.09-3.47.89-4.53-3.38-4.68-6.58C181.52,109.93,184.92,102.9,186.05,93.56Z"/><path d="M174.32,137.6c1.21,4.27,5,8.1,7.88,11.12a10.28,10.28,0,0,0,6.72,3.65c1.74.27,4.68.45,5.44-2,.83-2.58-2-6-3.78-3.47a5.38,5.38,0,0,1,9.67-.8c2.57,4.09-.23,8.63-3.55,10.32,3.62.8,5.66,6.23,4.38,10.23-1.28,4.18-6.57,4.34-9.59.8,4.61.62,4.61-5.6.91-7.83-3.32-2-7.48-3.58-10.12-6.6-1.89-2.22-3.17-4.43-4.83-6.56Z"/><path d="M154.93,18.27c.89,2.31-2.31,3.38-4.09,2.13-4.09-3,1.78-8.54,5.34-8,8.72,1.25,11,12.45,7.65,19-1.42,3-8.36,7.65-7.83,1.25.36-4.27,4.09-7.12,3.91-11.57-.18-3.74-2.49-8-6.76-6.58-4.63,1.42-1.78,8.18,1.78,5l.18-.18Z"/><path d="M162.4.83c-2.49,1.42-.18,4.09-1.6,5.34-1.25.89-3.74-.89-5.52.18-5.34,3.56,3.74,3.36,6.94,6.23,1.8,1.61,3.38,5.52,4.27,6.41C166.49,19,168.45-2.73,162.4.83Z"/><path d="M170.94,18.62C173.25,16.13,185.53,4,182.68,1.54c-3.91-3.2-7.83,3.92-9.61,2.67-1.07-.53-1.6-5-3.92-4.09-1.6.53-1.07,3.74-.89,5C168.45,7.41,170.94,18.62,170.94,18.62Z"/><path d="M165.42,34.1c2.49-3.2-.36-10.85,3-13.17,3.91-2.49,3.56,5,2.67,6.94a12.75,12.75,0,0,1-4.8,5.34Z"/><path d="M182.79,45.43c-2.31-.89-3.38,2.31-2.14,4.09,3,4.09,8.54-1.78,8-5.34-1.25-8.72-12.46-11-19-7.65-3,1.42-7.65,8.36-1.25,7.83,4.27-.36,7.12-4.09,11.56-3.92,3.74.18,8,2.49,6.58,6.76-1.42,4.63-8.19,1.78-5-1.78l.18-.18Z"/><path d="M200.23,38c-1.42,2.49-4.09.18-5.34,1.6-.89,1.25.89,3.74-.18,5.52-3.56,5.34-3.36-3.74-6.23-6.94-1.61-1.8-5.52-3.38-6.41-4.27C182.08,33.87,203.79,31.91,200.23,38Z"/><path d="M182.44,29.42c2.49-2.31,14.59-14.59,17.08-11.74,3.2,3.91-3.92,7.83-2.67,9.61.53,1.07,5,1.6,4.09,3.92-.53,1.6-3.74,1.07-5,.89C193.64,31.91,182.44,29.42,182.44,29.42Z"/><path d="M167,34.93c3.2-2.49,10.85.36,13.17-3,2.49-3.91-5-3.56-6.94-2.67a12.75,12.75,0,0,0-5.34,4.8Z"/><path d="M175,25.38C174.5,15.6,182.15,8.84,192.11,9c0,3.91-2.49,8.54-5.34,11.39-3.2,3-6.58,3.2-10,4.27Z"/><path d="M165.07,36.59c-3.38.89-2.31,7.65-.36,9.43h0c-3,0-3.2-.71-3.74-2.49a11.57,11.57,0,0,1-6,3.74c0-2.13,1.25-3.91,2.67-5.52-2.14.36-3-1.42-3-3.2,3.92,1.42,6.58,1.07,8.72-1.07Z"/><path d="M121,17.3c-4.84-.35-12.14,2.4-13.31,7.67-1,4.68,2.44,8.67,6.93,9.33,3.65.54,8.27-1,9.18-5,1.06-4.66-4.5-9.33-8.89-6.93-1.95,1.06-2.95,3.86-1.18,5.53a2.73,2.73,0,0,0,4.61-1,.94.94,0,0,0-1.71-.72,1,1,0,0,1-1.83-.16c-.39-1,1.62-2.19,2.44-2.22a5.58,5.58,0,0,1,3.58,1.38,4,4,0,0,1,.75,4.86c-1.46,2.59-5.34,3.08-7.95,2.36-3.77-1.05-6-5.32-3.86-8.9,2.35-3.9,7.44-4.39,11.27-5.92a.15.15,0,0,0,0-.29Z"/><path d="M102.8,28.84c-2.66-1.61-4.45,2.93-1.52,4a5.71,5.71,0,0,0,6-1.66c1.36-1.76.91-4.21,2-6.08.59-1-.9-1.83-1.53-.89-1.6,2.38-.39,6.16-3.66,7.24-.93.31-3.07.76-3.3-.71-.18-1.12,1-1.46,1.86-1.43a.28.28,0,0,0,.14-.51Z"/><path d="M120.6,37a8.17,8.17,0,0,1-3,.52,2.17,2.17,0,0,1-1.51-.91,1.44,1.44,0,0,1-.24-1.38,1.16,1.16,0,0,1,.36-.42,3.6,3.6,0,0,1,1.1-.35.82.82,0,0,0-.22-1.61,2.89,2.89,0,0,0-2.46,4.5,3.49,3.49,0,0,0,2.67,1.56,3.89,3.89,0,0,0,3.4-1.73.13.13,0,0,0-.14-.18Z"/><path d="M140.17,22.43c.24-6.13-13.82-3.7-10.3,4.65,3,7.2,14.13.88,16.31-4,3.68-8.2-6.64-12.11-12.8-12.51-14-.91-24.79,8.05-37.3,12.76A71.73,71.73,0,0,1,67.44,27.8a27.16,27.16,0,0,1-14.86-5.06c-4.44-3.26-6.74-7.51-9.71-12-.43-.65-1.49,0-1.05.61,3.13,4.7,5.47,9,10.14,12.41a28.93,28.93,0,0,0,16.31,5.27c13.44.58,26.58-3.24,38.41-9.31,9.88-5.06,21.69-11.06,33.06-6.79,6.85,2.58,7.74,9.64,1.81,13.9-1.89,1.36-4.44,2.64-6.85,2.57a4.64,4.64,0,0,1-4.62-4.35c-.38-5.26,9.28-8.43,9.79-2.65a.14.14,0,0,0,.28,0Z"/><path d="M99.8,25.44c-6.21,4.87-15.29,3.41-22.7,4.44-3,.41-9.39,1.51-8.59,5.91.55,3,5.34,5.55,7.68,2.87,2-2.29-.44-4.11-2.77-3.45a.21.21,0,0,0,.11.41q-3.94,6.91-2.15-3.57a11.23,11.23,0,0,1,2.72-1,30.81,30.81,0,0,1,4.94-.8c2.72-.31,5.45-.46,8.18-.67,4.55-.34,9.16-.86,12.6-4.13,0,0,0,0,0,0Z"/><path d="M47.86,26c-4.76-.15-8.59-3.84-13.34-3.68-2.68.09-6.14,1.61-5.76,4.82.29,2.48,3.12,3.92,5.38,3.23C36,29.79,38,27.57,35.42,26.5c-.42-.18-.8.41-.37.63q.64,2.33-1.44,2.58A3.7,3.7,0,0,1,29.85,28a3.24,3.24,0,0,1,1.49-4.22c2.3-1.33,5.16-.79,7.5,0,3,1.06,5.75,2.73,9,2.27.08,0,.05-.13,0-.13Z"/><path d="M144.42,11.53c-2.25-5.63-8.94-5.86-14.16-5.25a56.56,56.56,0,0,0-9.26,2,70.67,70.67,0,0,1-9.06,2.38,12.85,12.85,0,0,1-5.38,0l-2-.8q5.16-7.63,2.42-1.77c-.54.13-.31,1,.23.83,3.06-.74,2.6-3.95-.31-4.79s-6.64,2.36-4.47,5.18c4.14,5.38,13.94,1.1,18.75-.35,6.91-2.09,18.72-5.32,23,2.63.06.12.27,0,.22-.09Z"/><path d="M67.43,30.29a39.39,39.39,0,0,1-17.61-6.49C41.46,18.51,34.87,14.1,22.6,13.37c-7.38-.44-15.83,4.38-22.6.45C3,19,12.46,17.6,17.44,16.24c.18,1.51-2.85,3.62-6.76,3.62,6.76,2.1,11.57-1.06,15.66-1.36a25.62,25.62,0,0,1,12.81,2.27c3.74,1.66,7.42,3,11,4.83C63.7,32.39,67.43,30.29,67.43,30.29Z"/><path d="M106.58,16.09a42,42,0,0,0-6.4,2.11,49.74,49.74,0,0,1-13.34,4.08,16.06,16.06,0,0,1-10.32-.91c-4.27-2.11-4.8-5.89-7.29-8.91-1.6-1.81-4.63-4.53-7.3-4.83,4.45.45,9.43,1.81,11.74,5.44,2-1.51,5.34-3.62,8.18-2.42,3,1.21,3.2,5.59-.18,6.34,2.85-3.32-3.2-5.29-4.09-1.36-.89,3.47,3.38,4.53,6.58,4.68C90.21,20.62,97.24,17.22,106.58,16.09Z"/><path d="M62.54,27.82c-4.27-1.21-8.1-5-11.12-7.88a10.28,10.28,0,0,1-3.65-6.72c-.27-1.74-.45-4.68,2-5.44,2.58-.83,6,2,3.47,3.78A5.38,5.38,0,0,0,54,1.89c-4.09-2.57-8.63.23-10.32,3.55-.8-3.62-6.23-5.66-10.23-4.38-4.18,1.28-4.34,6.57-.8,9.59C32,6,38.25,6,40.48,9.75c2,3.32,3.58,7.48,6.6,10.12,2.22,1.89,4.43,3.17,6.57,4.83Z"/></g></g></svg>